<svg width="1920" height="2522" viewBox="0 0 1920 2522" fill="none" xmlns="http://www.w3.org/2000/svg">
    <g id="floor2">
        <path id="walls2"
              d="M657.5 842.5H911L911.274 643.5H553.5V721H495.5V749.421H402.5V1074.5H421.5V1174.5H402.5V1441.5H492.5V1642.5C472.281 1651.05 462.711 1657.39 450 1672.5H375.5V1714.5L416.5 1797.5V1839.5H472C623.416 1942.21 714.888 1891.81 813.5 1834H869.5V1676.5H813.5C776.254 1645.42 672.944 1576.6 530.5 1634.5V1566.5H905.5V1549.5H1016.5V1566.5H1376.5V1483.5H1422.5V1447.5H1519.5V1153.5H1496.5V1124.5H1551.5V1082.5H1496.5V1049.5H1520.5V945.5H1423.5V872.5H1323.5L1216.5 819V770V722.5H1186.5L1185.5 563.5H1328.5V78.5H1131.5V110.5H1015.5V339.5H978.5V484.5H1055.5V563.5H1132.5V643.5H911.381L911.105 842.5H934.5V884.5H989.5V849.5H1132.5L1284.5 919.5V1049.5H1302.5V1155.5H1284.5V1347L1265.5 1364.5H1016.5V1375.5H904.5V1365.5H652.5L635.5 1342.5V1171.5H613.5V1073.5H635.5V859.5L657.5 842.5Z"
              stroke="black"/>
        <g id="theather">
            <rect id="th_hall" x="536.5" y="1676.5" width="333" height="158" stroke="black"/>
            <rect id="th_t2_m" x="496.5" y="1729.5" width="40" height="27" stroke="black"/>
            <rect id="th_t2_w" x="496.5" y="1756.5" width="40" height="27" stroke="black"/>
            <g id="th_ladder2_1">
                <rect id="th_ladder2_1" x="375.5" y="1672.5" width="55" height="42" stroke="black"/>
                <path d="M420 1682H409.667C409.114 1682 408.667 1682.45 408.667 1683V1692.5C408.667 1693.05 408.219 1693.5 407.667 1693.5H398.333C397.781 1693.5 397.333 1693.95 397.333 1694.5V1704C397.333 1704.55 396.886 1705 396.333 1705H386"
                      stroke="black" stroke-width="2" stroke-linecap="round" stroke-linejoin="round"/>
            </g>
            <g id="th_ladder2_2">
                <rect id="th_ladder2_2" x="416.5" y="1797.5" width="55" height="42" stroke="black"/>
                <path d="M461 1807H450.667C450.114 1807 449.667 1807.45 449.667 1808V1817.5C449.667 1818.05 449.219 1818.5 448.667 1818.5H439.333C438.781 1818.5 438.333 1818.95 438.333 1819.5V1829C438.333 1829.55 437.886 1830 437.333 1830H427"
                      stroke="black" stroke-width="2" stroke-linecap="round" stroke-linejoin="round"/>
            </g>
        </g>
        <g id="c1">
            <g id="ladder2">
                <g id="ladder2_1">
                    <rect id="ladder2_1" x="934.5" y="842.5" width="55" height="42" stroke="black"/>
                    <path d="M979 852H968.667C968.114 852 967.667 852.448 967.667 853V862.5C967.667 863.052 967.219 863.5 966.667 863.5H957.333C956.781 863.5 956.333 863.948 956.333 864.5V874C956.333 874.552 955.886 875 955.333 875H945"
                          stroke="black" stroke-width="2" stroke-linecap="round" stroke-linejoin="round"/>
                </g>
                <g id="ladder2_2">
                    <rect id="ladder2_2" x="366.5" y="1102.5" width="55" height="42" stroke="black"/>
                    <path d="M411 1112H400.667C400.114 1112 399.667 1112.45 399.667 1113V1122.5C399.667 1123.05 399.219 1123.5 398.667 1123.5H389.333C388.781 1123.5 388.333 1123.95 388.333 1124.5V1134C388.333 1134.55 387.886 1135 387.333 1135H377"
                          stroke="black" stroke-width="2" stroke-linecap="round" stroke-linejoin="round"/>
                </g>
                <g id="ladder2_3">
                    <rect id="ladder2_3" x="932.5" y="1549.5" width="55" height="42" stroke="black"/>
                    <path d="M977 1559H966.667C966.114 1559 965.667 1559.45 965.667 1560V1569.5C965.667 1570.05 965.219 1570.5 964.667 1570.5H955.333C954.781 1570.5 954.333 1570.95 954.333 1571.5V1581C954.333 1581.55 953.886 1582 953.333 1582H943"
                          stroke="black" stroke-width="2" stroke-linecap="round" stroke-linejoin="round"/>
                </g>
                <g id="ladder2_4">
                    <rect id="ladder2_4" x="1496.5" y="1082.5" width="55" height="42" stroke="black"/>
                    <path d="M1541 1092H1530.67C1530.11 1092 1529.67 1092.45 1529.67 1093V1102.5C1529.67 1103.05 1529.22 1103.5 1528.67 1103.5H1519.33C1518.78 1103.5 1518.33 1103.95 1518.33 1104.5V1114C1518.33 1114.55 1517.89 1115 1517.33 1115H1507"
                          stroke="black" stroke-width="2" stroke-linecap="round" stroke-linejoin="round"/>
                </g>
            </g>
            <g id="rooms2">
                <rect id="r236" x="1074.5" y="764.5" width="58" height="85" stroke="black"/>
                <rect id="r249" x="1061.5" y="643.5" width="71" height="78" stroke="black"/>
                <rect id="r234a" x="1025.5" y="764.5" width="49" height="85" stroke="black"/>
                <rect id="r247" x="997.5" y="643.5" width="64" height="78" stroke="black"/>
                <rect id="r234" x="989.5" y="764.5" width="36" height="85" stroke="black"/>
                <rect id="r2tex1" x="868.5" y="763.5" width="42" height="79" stroke="black"/>
                <rect id="r245" x="837.5" y="643.5" width="73" height="78" stroke="black"/>
                <rect id="r2tex2" x="777.5" y="763.5" width="91" height="79" stroke="black"/>
                <rect id="r2tex4" x="800.5" y="643.5" width="37" height="78" stroke="black"/>
                <rect id="r243" x="766.5" y="643.5" width="34" height="78" stroke="black"/>
                <rect id="r2tex3" x="676.5" y="763.5" width="101" height="79" stroke="black"/>
                <rect id="r241" x="734.5" y="643.5" width="32" height="78" stroke="black"/>
                <rect id="r239a" x="647.5" y="643.5" width="87" height="78" stroke="black"/>
                <rect id="r239" x="553.5" y="643.5" width="94" height="78" stroke="black"/>
                <path id="t2_m1" d="M657.5 842.5H676.5V763.5L610.5 764.5V783.5L593.5 798L646 851.5L657.5 842.5Z"
                      stroke="black"/>
                <path id="t2_w1" d="M593.5 798L645.5 852L635.5 859.5V870.5H542.5L542 815H574.5L593.5 798Z"
                      stroke="black"/>
                <rect id="r2tex5" x="402.5" y="749.5" width="93" height="28" stroke="black"/>
                <rect id="r237" x="402.5" y="777.5" width="93" height="145" stroke="black"/>
                <rect id="r2tex6" x="542.5" y="870.5" width="93" height="29" stroke="black"/>
                <rect id="r230" x="542.5" y="899.5" width="93" height="31" stroke="black"/>
                <rect id="r235" x="402.5" y="922.5" width="93" height="152" stroke="black"/>
                <rect id="r228" x="542.5" y="930.5" width="93" height="37" stroke="black"/>
                <rect id="r226" x="542.5" y="967.5" width="93" height="43" stroke="black"/>
                <rect id="r224" x="542.5" y="1010.5" width="93" height="63" stroke="black"/>
                <rect id="r222a" x="542.5" y="1073.5" width="71" height="98" stroke="black"/>
                <rect id="r231a" x="421.5" y="1074.5" width="74" height="28" stroke="black"/>
                <rect id="r2tex7" x="421.5" y="1144.5" width="71" height="30" stroke="black"/>
                <rect id="r222" x="542.5" y="1171.5" width="93" height="89" stroke="black"/>
                <rect id="r2tex8" x="402.5" y="1174.5" width="90" height="79" stroke="black"/>
                <rect id="r2tex9" x="402.5" y="1253.5" width="90" height="32" stroke="black"/>
                <rect id="r218" x="542.5" y="1260.5" width="93" height="68" stroke="black"/>
                <rect id="r227" x="402.5" y="1285.5" width="90" height="99" stroke="black"/>
                <rect id="r225" x="402.5" y="1384.5" width="90" height="57" stroke="black"/>
                <path id="t2_m2"
                      d="M635.5 1342.5L635.5 1328.5L542.5 1328.5L542.5 1387.5L574.5 1387.5L590.997 1405.93L645 1355.5L635.5 1342.5Z"
                      stroke="black"/>
                <path id="t2_w2"
                      d="M590.997 1405.93L645 1355.5L652.5 1365.5L664.5 1365.5L664.5 1440.5L608.5 1440.5L608.5 1426L590.997 1405.93Z"
                      stroke="black"/>
                <rect id="r2tex11" x="530.5" y="1483.5" width="62" height="83" stroke="black"/>
                <rect id="r2tex12" x="592.5" y="1483.5" width="72" height="83" stroke="black"/>
                <rect id="r2tex10" x="664.5" y="1365.5" width="115" height="75" stroke="black"/>
                <rect id="r221" x="664.5" y="1483.5" width="92" height="83" stroke="black"/>
                <rect id="r214" x="779.5" y="1365.5" width="80" height="75" stroke="black"/>
                <rect id="r219" x="756.5" y="1483.5" width="149" height="83" stroke="black"/>
                <rect id="r210" x="859.5" y="1365.5" width="45" height="75" stroke="black"/>
                <rect id="r219a" x="905.5" y="1483.5" width="27" height="66" stroke="black"/>
                <rect id="r210a" x="904.5" y="1375.5" width="30" height="65" stroke="black"/>
                <rect id="r217a" x="987.5" y="1483.5" width="29" height="66" stroke="black"/>
                <rect id="r210_2" x="934.5" y="1375.5" width="53" height="65" stroke="black"/>
                <rect id="r208a" x="987.5" y="1375.5" width="29" height="65" stroke="black"/>
                <rect id="r208" x="1016.5" y="1364.5" width="125" height="76" stroke="black"/>
                <rect id="r2tex13" x="1016.5" y="1483.5" width="74" height="83" stroke="black"/>
                <rect id="r206" x="1141.5" y="1364.5" width="108" height="76" stroke="black"/>
                <rect id="r215" x="1090.5" y="1483.5" width="53" height="83" stroke="black"/>
                <rect id="r213" x="1143.5" y="1483.5" width="69" height="83" stroke="black"/>
                <rect id="r211" x="1212.5" y="1483.5" width="74" height="83" stroke="black"/>
                <rect id="r209" x="1286.5" y="1483.5" width="90" height="83" stroke="black"/>
                <rect id="r207a" x="1376.5" y="1447.5" width="46" height="36" stroke="black"/>
                <path id="t2_w3"
                      d="M1265.5 1364.5L1249 1364.5L1249.5 1440.5L1312.5 1440.5L1312.5 1423L1325.5 1409.5L1275.5 1355.5L1265.5 1364.5Z"
                      stroke="black"/>
                <path id="t1_dp"
                      d="M1325.5 1409.5L1275.5 1355.5L1284.5 1347L1284.5 1315.5L1375.46 1315.5L1375.46 1391.5L1343.5 1391.5L1325.5 1409.5Z"
                      stroke="black"/>
                <rect id="r207" x="1422.5" y="1333.5" width="97" height="114" stroke="black"/>
                <rect id="r2tex14" x="1422.5" y="1303.76" width="97" height="29.9293" stroke="black"/>
                <rect id="r204" x="1284.5" y="1235.5" width="91" height="80" stroke="black"/>
                <rect id="r205" x="1422.5" y="1235.72" width="97" height="68.0755" stroke="black"/>
                <rect id="r202" x="1284.5" y="1181.5" width="91" height="54" stroke="black"/>
                <rect id="r203" x="1422.5" y="1153.5" width="97" height="82" stroke="black"/>
                <rect id="r2tex15" x="1284.47" y="1155.67" width="90.9289" height="25.7646" stroke="black"/>
                <rect id="r203a" x="1422.5" y="1124.5" width="74" height="29" stroke="black"/>
                <rect id="r202a" x="1302.5" y="1049.5" width="73" height="106" stroke="black"/>
                <rect id="r201a" x="1423.5" y="1049.5" width="73" height="33" stroke="black"/>
                <rect id="r200" x="1284.5" y="950.5" width="91" height="99" stroke="black"/>
                <rect id="r201" x="1423.5" y="945.5" width="97" height="104" stroke="black"/>
                <rect id="bufet" x="1284.5" y="919.5" width="38" height="31" stroke="black"/>
                <rect id="r2tex16" x="1186.5" y="722.5" width="30" height="48" stroke="black"/>
            </g>
            <g id="ad_obj2">
                <path d="M1357.49 1363L1355.27 1363.74C1355.1 1363.8 1354.92 1363.79 1354.75 1363.72C1354.59 1363.65 1354.45 1363.53 1354.37 1363.37L1351.61 1357.85H1343.92C1343.73 1357.85 1343.54 1357.77 1343.4 1357.64C1343.26 1357.5 1343.18 1357.31 1343.18 1357.11V1354.37C1341.99 1354.72 1340.96 1355.5 1340.29 1356.55C1339.62 1357.6 1339.35 1358.85 1339.53 1360.08C1339.71 1361.31 1340.33 1362.44 1341.27 1363.26C1342.21 1364.07 1343.42 1364.52 1344.66 1364.52C1347.06 1364.52 1349.3 1362.85 1349.87 1360.63C1349.9 1360.54 1349.94 1360.45 1350 1360.37C1350.06 1360.29 1350.13 1360.23 1350.21 1360.18C1350.3 1360.13 1350.39 1360.1 1350.49 1360.08C1350.58 1360.07 1350.68 1360.07 1350.78 1360.1C1350.87 1360.12 1350.96 1360.16 1351.04 1360.22C1351.11 1360.28 1351.18 1360.36 1351.23 1360.44C1351.28 1360.52 1351.31 1360.62 1351.33 1360.71C1351.34 1360.81 1351.33 1360.91 1351.31 1361C1350.56 1363.9 1347.77 1366 1344.66 1366C1343.03 1366 1341.44 1365.39 1340.22 1364.3C1339 1363.21 1338.23 1361.71 1338.04 1360.08C1337.86 1358.45 1338.28 1356.81 1339.23 1355.48C1340.18 1354.14 1341.58 1353.2 1343.18 1352.84V1351.08C1342.59 1350.9 1342.07 1350.51 1341.74 1349.99C1341.4 1349.46 1341.27 1348.83 1341.36 1348.22C1341.45 1347.6 1341.76 1347.04 1342.23 1346.63C1342.7 1346.22 1343.3 1346 1343.92 1346C1344.55 1346 1345.15 1346.22 1345.62 1346.63C1346.09 1347.04 1346.4 1347.6 1346.49 1348.22C1346.58 1348.83 1346.44 1349.46 1346.11 1349.99C1345.77 1350.51 1345.26 1350.9 1344.66 1351.08V1352.67H1349.85C1350.05 1352.67 1350.24 1352.75 1350.37 1352.89C1350.51 1353.02 1350.59 1353.21 1350.59 1353.41C1350.59 1353.61 1350.51 1353.79 1350.37 1353.93C1350.24 1354.07 1350.05 1354.15 1349.85 1354.15H1344.66V1356.37H1352.07C1352.21 1356.37 1352.35 1356.41 1352.46 1356.48C1352.58 1356.55 1352.67 1356.66 1352.74 1356.78L1355.41 1362.13L1357.02 1361.59C1357.21 1361.53 1357.41 1361.55 1357.59 1361.63C1357.77 1361.72 1357.9 1361.88 1357.96 1362.06C1358.02 1362.25 1358.01 1362.45 1357.92 1362.63C1357.83 1362.8 1357.68 1362.94 1357.49 1363Z"
                      fill="black"/>
                <path d="M642.5 796V789.5H642C641.717 789.5 641.479 789.404 641.288 789.212C641.097 789.02 641.001 788.783 641 788.5V784C641 783.45 641.196 782.979 641.588 782.588C641.98 782.197 642.451 782.001 643 782H646C646.55 782 647.021 782.196 647.413 782.588C647.805 782.98 648.001 783.451 648 784V788.5C648 788.783 647.904 789.021 647.712 789.213C647.52 789.405 647.283 789.501 647 789.5H646.5V796C646.5 796.283 646.404 796.521 646.212 796.713C646.02 796.905 645.783 797.001 645.5 797H643.5C643.217 797 642.979 796.904 642.788 796.712C642.597 796.52 642.501 796.283 642.5 796ZM644.5 781C643.95 781 643.479 780.804 643.088 780.413C642.697 780.022 642.501 779.551 642.5 779C642.499 778.449 642.695 777.979 643.088 777.588C643.481 777.197 643.951 777.001 644.5 777C645.049 776.999 645.52 777.195 645.913 777.588C646.306 777.981 646.502 778.452 646.5 779C646.498 779.548 646.302 780.019 645.913 780.413C645.524 780.807 645.053 781.003 644.5 781Z"
                      fill="black"/>
                <path d="M562.5 1362V1355.5H562C561.717 1355.5 561.479 1355.4 561.288 1355.21C561.097 1355.02 561.001 1354.78 561 1354.5V1350C561 1349.45 561.196 1348.98 561.588 1348.59C561.98 1348.2 562.451 1348 563 1348H566C566.55 1348 567.021 1348.2 567.413 1348.59C567.805 1348.98 568.001 1349.45 568 1350V1354.5C568 1354.78 567.904 1355.02 567.712 1355.21C567.52 1355.41 567.283 1355.5 567 1355.5H566.5V1362C566.5 1362.28 566.404 1362.52 566.212 1362.71C566.02 1362.91 565.783 1363 565.5 1363H563.5C563.217 1363 562.979 1362.9 562.788 1362.71C562.597 1362.52 562.501 1362.28 562.5 1362ZM564.5 1347C563.95 1347 563.479 1346.8 563.088 1346.41C562.697 1346.02 562.501 1345.55 562.5 1345C562.499 1344.45 562.695 1343.98 563.088 1343.59C563.481 1343.2 563.951 1343 564.5 1343C565.049 1343 565.52 1343.19 565.913 1343.59C566.306 1343.98 566.502 1344.45 566.5 1345C566.498 1345.55 566.302 1346.02 565.913 1346.41C565.524 1346.81 565.053 1347 564.5 1347Z"
                      fill="black"/>
                <path d="M563.614 846V841H561.989C561.656 841 561.389 840.862 561.189 840.587C560.989 840.312 560.948 840.008 561.064 839.675L563.164 833.35C563.298 832.917 563.543 832.583 563.901 832.35C564.259 832.117 564.664 832 565.114 832C565.565 832 565.969 832.117 566.327 832.35C566.685 832.583 566.931 832.917 567.064 833.35L569.164 839.675C569.281 840.008 569.239 840.313 569.039 840.588C568.839 840.863 568.573 841.001 568.239 841H566.614V846C566.614 846.283 566.518 846.521 566.326 846.713C566.134 846.905 565.897 847.001 565.614 847H564.614C564.331 847 564.094 846.904 563.902 846.712C563.711 846.52 563.615 846.283 563.614 846ZM565.114 831C564.564 831 564.094 830.804 563.702 830.413C563.311 830.022 563.115 829.551 563.114 829C563.114 828.449 563.31 827.979 563.702 827.588C564.095 827.197 564.566 827.001 565.114 827C565.663 826.999 566.134 827.195 566.527 827.588C566.921 827.981 567.116 828.452 567.114 829C567.112 829.548 566.917 830.019 566.527 830.413C566.138 830.807 565.667 831.003 565.114 831Z"
                      fill="black"/>
                <path d="M634.614 1423V1418H632.989C632.656 1418 632.389 1417.86 632.189 1417.59C631.989 1417.31 631.948 1417.01 632.064 1416.68L634.164 1410.35C634.298 1409.92 634.543 1409.58 634.901 1409.35C635.259 1409.12 635.664 1409 636.114 1409C636.565 1409 636.969 1409.12 637.327 1409.35C637.685 1409.58 637.931 1409.92 638.064 1410.35L640.164 1416.68C640.281 1417.01 640.239 1417.31 640.039 1417.59C639.839 1417.86 639.573 1418 639.239 1418H637.614V1423C637.614 1423.28 637.518 1423.52 637.326 1423.71C637.134 1423.91 636.897 1424 636.614 1424H635.614C635.331 1424 635.094 1423.9 634.902 1423.71C634.711 1423.52 634.615 1423.28 634.614 1423ZM636.114 1408C635.564 1408 635.094 1407.8 634.702 1407.41C634.311 1407.02 634.115 1406.55 634.114 1406C634.114 1405.45 634.31 1404.98 634.702 1404.59C635.095 1404.2 635.566 1404 636.114 1404C636.663 1404 637.134 1404.19 637.527 1404.59C637.921 1404.98 638.116 1405.45 638.114 1406C638.112 1406.55 637.917 1407.02 637.527 1407.41C637.138 1407.81 636.667 1408 636.114 1408Z"
                      fill="black"/>
                <path d="M1276.61 1422V1417H1274.99C1274.66 1417 1274.39 1416.86 1274.19 1416.59C1273.99 1416.31 1273.95 1416.01 1274.06 1415.68L1276.16 1409.35C1276.3 1408.92 1276.54 1408.58 1276.9 1408.35C1277.26 1408.12 1277.66 1408 1278.11 1408C1278.57 1408 1278.97 1408.12 1279.33 1408.35C1279.69 1408.58 1279.93 1408.92 1280.06 1409.35L1282.16 1415.68C1282.28 1416.01 1282.24 1416.31 1282.04 1416.59C1281.84 1416.86 1281.57 1417 1281.24 1417H1279.61V1422C1279.61 1422.28 1279.52 1422.52 1279.33 1422.71C1279.13 1422.91 1278.9 1423 1278.61 1423H1277.61C1277.33 1423 1277.09 1422.9 1276.9 1422.71C1276.71 1422.52 1276.62 1422.28 1276.61 1422ZM1278.11 1407C1277.56 1407 1277.09 1406.8 1276.7 1406.41C1276.31 1406.02 1276.12 1405.55 1276.11 1405C1276.11 1404.45 1276.31 1403.98 1276.7 1403.59C1277.1 1403.2 1277.57 1403 1278.11 1403C1278.66 1403 1279.13 1403.19 1279.53 1403.59C1279.92 1403.98 1280.12 1404.45 1280.11 1405C1280.11 1405.55 1279.92 1406.02 1279.53 1406.41C1279.14 1406.81 1278.67 1407 1278.11 1407Z"
                      fill="black"/>
                <g id="lift2">
                    <rect id="lift2" x="913.5" y="821.5" width="19" height="19" stroke="black"/>
                    <path d="M923 828.529H926C926.552 828.529 927 828.977 927 829.529V836C927 836.552 926.552 837 926 837H923M923 828.529H920C919.448 828.529 919 828.977 919 829.529V836C919 836.552 919.448 837 920 837H923M923 828.529V837M920 826.059L921 825L922 826.059M924 825L925 826.059L926 825"
                          stroke="black"/>
                </g>
                <path d="M1294.18 927.64C1294.22 927.191 1294.43 926.773 1294.75 926.469C1295.08 926.165 1295.52 925.998 1295.96 926C1296.39 926 1296.78 926.148 1297.09 926.396C1297.41 926.139 1297.82 926 1298.24 926C1298.67 926 1299.07 926.147 1299.39 926.396C1299.7 926.139 1300.1 925.999 1300.51 926C1301.43 926 1302.21 926.7 1302.29 927.64C1302.37 928.566 1302.47 929.999 1302.47 931.226C1302.47 931.963 1302.28 932.687 1301.92 933.328C1301.56 933.97 1301.05 934.507 1300.42 934.888C1300.21 935.015 1300.16 935.173 1300.16 935.254C1300.28 937.092 1300.59 941.86 1300.59 942.625C1300.59 943.255 1300.34 943.859 1299.9 944.304C1299.46 944.75 1298.86 945 1298.24 945C1297.61 945 1297.01 944.75 1296.57 944.304C1296.13 943.859 1295.88 943.255 1295.88 942.625C1295.88 941.86 1296.19 937.092 1296.31 935.254C1296.31 935.172 1296.26 935.015 1296.05 934.888C1295.42 934.507 1294.91 933.97 1294.55 933.328C1294.19 932.687 1294 931.963 1294 931.226C1294 930 1294.1 928.566 1294.18 927.64ZM1300.12 930.988C1300.12 931.177 1300.04 931.359 1299.91 931.492C1299.78 931.626 1299.6 931.701 1299.41 931.701C1299.22 931.701 1299.05 931.626 1298.91 931.492C1298.78 931.359 1298.71 931.177 1298.71 930.988V927.9C1298.71 927.774 1298.66 927.653 1298.57 927.564C1298.48 927.475 1298.36 927.425 1298.24 927.425C1298.11 927.425 1297.99 927.475 1297.9 927.564C1297.81 927.653 1297.76 927.774 1297.76 927.9V930.988C1297.76 931.177 1297.69 931.359 1297.56 931.492C1297.43 931.626 1297.25 931.701 1297.06 931.701C1296.87 931.701 1296.69 931.626 1296.56 931.492C1296.43 931.359 1296.35 931.177 1296.35 930.988V927.82C1296.35 927.715 1296.31 927.615 1296.24 927.541C1296.17 927.467 1296.07 927.425 1295.96 927.425C1295.87 927.424 1295.78 927.457 1295.71 927.52C1295.64 927.582 1295.6 927.669 1295.59 927.763C1295.51 928.679 1295.41 930.062 1295.41 931.226C1295.41 932.261 1295.96 933.168 1296.78 933.668C1297.29 933.981 1297.76 934.58 1297.71 935.348C1297.59 937.229 1297.29 941.921 1297.29 942.626C1297.29 942.878 1297.39 943.119 1297.57 943.297C1297.75 943.476 1297.99 943.576 1298.24 943.576C1298.48 943.576 1298.72 943.476 1298.9 943.297C1299.08 943.119 1299.18 942.878 1299.18 942.626C1299.18 941.921 1298.88 937.229 1298.76 935.348C1298.71 934.58 1299.18 933.981 1299.69 933.668C1300.11 933.414 1300.45 933.056 1300.69 932.628C1300.93 932.2 1301.06 931.717 1301.06 931.226C1301.06 930.063 1300.96 928.679 1300.88 927.763C1300.87 927.669 1300.83 927.582 1300.76 927.52C1300.69 927.457 1300.6 927.424 1300.51 927.425C1300.4 927.425 1300.31 927.467 1300.23 927.541C1300.16 927.615 1300.12 927.715 1300.12 927.82V930.988ZM1303.41 931.463C1303.41 930.014 1303.98 928.625 1305 927.6C1306.01 926.576 1307.39 926 1308.82 926C1309.01 926 1309.19 926.075 1309.32 926.209C1309.46 926.342 1309.53 926.524 1309.53 926.713V934.789C1309.53 935.091 1309.63 936.589 1309.74 938.249L1309.75 938.328C1309.87 940.141 1310 942.113 1310 942.625C1310 943.255 1309.75 943.859 1309.31 944.304C1308.87 944.75 1308.27 945 1307.65 945C1307.02 945 1306.42 944.75 1305.98 944.304C1305.54 943.859 1305.29 943.255 1305.29 942.625C1305.29 942.136 1305.41 940.144 1305.53 938.317C1305.59 937.394 1305.65 936.5 1305.69 935.837L1305.71 935.501H1305.06C1304.84 935.501 1304.63 935.458 1304.43 935.375C1304.23 935.291 1304.05 935.169 1303.89 935.014C1303.74 934.86 1303.62 934.677 1303.54 934.475C1303.45 934.273 1303.41 934.057 1303.41 933.839V931.463ZM1307.17 934.838L1307.15 935.137C1307.08 936.227 1307.01 937.318 1306.94 938.409C1306.82 940.271 1306.71 942.196 1306.71 942.625C1306.71 942.877 1306.81 943.118 1306.98 943.296C1307.16 943.475 1307.4 943.575 1307.65 943.575C1307.9 943.575 1308.14 943.475 1308.31 943.296C1308.49 943.118 1308.59 942.877 1308.59 942.625C1308.59 942.169 1308.46 940.225 1308.33 938.345L1308.33 938.246C1308.22 936.67 1308.12 935.147 1308.12 934.789V927.488C1307.19 927.655 1306.36 928.145 1305.76 928.872C1305.15 929.598 1304.82 930.516 1304.82 931.463V933.839C1304.82 933.97 1304.93 934.076 1305.06 934.076H1306.47C1306.57 934.076 1306.66 934.096 1306.75 934.135C1306.84 934.174 1306.92 934.231 1306.99 934.303C1307.05 934.374 1307.1 934.459 1307.14 934.551C1307.17 934.643 1307.18 934.741 1307.17 934.838Z"
                      fill="black"/>
                <path d="M1336.96 1276.91L1332.99 1266.27C1332.93 1266.12 1332.85 1265.99 1332.75 1265.87C1332.64 1265.76 1332.51 1265.67 1332.37 1265.6C1332.23 1265.54 1332.08 1265.5 1331.92 1265.5C1331.77 1265.49 1331.61 1265.52 1331.47 1265.58L1329.61 1266.29V1264.54C1329.61 1264.23 1329.49 1263.94 1329.28 1263.73C1329.06 1263.51 1328.78 1263.39 1328.48 1263.39H1325.48V1262.15C1325.48 1261.84 1325.36 1261.55 1325.15 1261.34C1324.94 1261.12 1324.65 1261 1324.35 1261H1320.18C1319.87 1261 1319.57 1261.13 1319.35 1261.35C1319.12 1261.57 1319 1261.88 1319 1262.2V1278.33C1319 1278.49 1319.06 1278.64 1319.17 1278.75C1319.28 1278.86 1319.43 1278.93 1319.59 1278.93H1329.02C1329.17 1278.93 1329.32 1278.86 1329.43 1278.75C1329.55 1278.64 1329.61 1278.49 1329.61 1278.33V1270.72L1332.55 1278.61C1332.58 1278.69 1332.62 1278.76 1332.68 1278.81C1332.73 1278.87 1332.79 1278.92 1332.86 1278.95C1332.93 1278.98 1333.01 1279 1333.09 1279C1333.16 1279 1333.24 1278.99 1333.31 1278.96L1336.62 1277.68C1336.69 1277.65 1336.76 1277.61 1336.81 1277.56C1336.87 1277.5 1336.92 1277.44 1336.95 1277.37C1336.98 1277.3 1337 1277.22 1337 1277.14C1337 1277.06 1336.99 1276.98 1336.96 1276.91ZM1324.3 1264.48V1277.73H1320.18V1262.2H1324.3V1264.48ZM1328.43 1277.73H1325.48V1264.59H1328.43V1277.73ZM1333.44 1277.58L1329.68 1267.52L1331.89 1266.68L1335.65 1276.73L1333.44 1277.58Z"
                      fill="black"/>
                <path d="M1469 1265C1469.64 1262.37 1472.07 1261.02 1477.36 1261C1477.44 1261 1477.53 1261.02 1477.6 1261.05C1477.68 1261.08 1477.75 1261.13 1477.81 1261.19C1477.87 1261.26 1477.92 1261.33 1477.95 1261.41C1477.98 1261.49 1478 1261.58 1478 1261.67V1273.67C1478 1273.84 1477.93 1274.01 1477.81 1274.14C1477.69 1274.26 1477.53 1274.33 1477.36 1274.33C1472.21 1274.33 1470.23 1275.41 1469 1277M1469 1265C1468.36 1262.37 1465.93 1261.02 1460.64 1261C1460.56 1261 1460.47 1261.02 1460.4 1261.05C1460.32 1261.08 1460.25 1261.13 1460.19 1261.19C1460.13 1261.26 1460.08 1261.33 1460.05 1261.41C1460.02 1261.49 1460 1261.58 1460 1261.67V1273.59C1460 1274 1460.25 1274.33 1460.64 1274.33C1465.79 1274.33 1467.78 1275.42 1469 1277M1469 1265V1277"
                      stroke="black" stroke-linecap="round" stroke-linejoin="round"/>
                <g id="relax2">
                    <rect id="relax2" x="942.5" y="649.5" width="18" height="18" stroke="black"/>
                    <path
                          d="M956.375 656.778V655.667C956.375 654.75 955.644 654 954.75 654H952.583C952.166 654 951.787 654.167 951.5 654.433C951.213 654.167 950.834 654 950.417 654H948.25C947.356 654 946.625 654.75 946.625 655.667V656.778C945.731 656.778 945 657.528 945 658.444V661.222C945 662.139 945.731 662.889 946.625 662.889V664H947.708V662.889H955.292V664H956.375V662.889C957.269 662.889 958 662.139 958 661.222V658.444C958 657.528 957.269 656.778 956.375 656.778ZM952.583 655.111H954.75C955.048 655.111 955.292 655.361 955.292 655.667V657.211C954.961 657.517 954.75 657.956 954.75 658.444V659.556H952.042V655.667C952.042 655.361 952.285 655.111 952.583 655.111ZM947.708 655.667C947.708 655.361 947.952 655.111 948.25 655.111H950.417C950.715 655.111 950.958 655.361 950.958 655.667V659.556H948.25V658.444C948.25 657.956 948.039 657.517 947.708 657.211V655.667ZM956.917 661.222C956.917 661.528 956.673 661.778 956.375 661.778H946.625C946.327 661.778 946.083 661.528 946.083 661.222V658.444C946.083 658.139 946.327 657.889 946.625 657.889C946.923 657.889 947.167 658.139 947.167 658.444V660.667H955.833V658.444C955.833 658.139 956.077 657.889 956.375 657.889C956.673 657.889 956.917 658.139 956.917 658.444V661.222Z"
                          fill="black"/>
                </g>
                <g id="vm2">
                    <rect id="vm2_1" x="1344.5" y="877.5" width="18" height="18" stroke="black"/>
                    <path
                          d="M1357.18 883H1348.71V885.286C1348.71 887.495 1350.5 889.286 1352.71 889.286H1353.18C1355.39 889.286 1357.18 887.495 1357.18 885.286V883ZM1357.18 883H1358.29C1359.23 883 1360 883.768 1360 884.714C1360 885.661 1359.23 886.429 1358.29 886.429H1357.18M1348 891H1359.29"
                          stroke="black"/>
                </g>
                <g id="vm2_2">
                    <rect id="vm2_2" x="1400.5" y="877.5" width="18" height="18" stroke="black"/>
                    <path
                          d="M1413.18 883H1404.71V885.286C1404.71 887.495 1406.5 889.286 1408.71 889.286H1409.18C1411.39 889.286 1413.18 887.495 1413.18 885.286V883ZM1413.18 883H1414.29C1415.23 883 1416 883.768 1416 884.714C1416 885.661 1415.23 886.429 1414.29 886.429H1413.18M1404 891H1415.29"
                          stroke="black"/>

                </g>
            </g>
        </g>
        <g id="auditorium2">
            <g id="a_ladder2_1">
                <rect id="a_ladder2_1" x="1093.5" y="453.5" width="39" height="31" stroke="black"/>
                <path
                      d="M1125.14 460.442H1117.76C1117.37 460.442 1117.05 460.776 1117.05 461.187V468.256C1117.05 468.667 1116.73 469.001 1116.33 469.001H1109.67C1109.27 469.001 1108.95 469.334 1108.95 469.745V476.814C1108.95 477.225 1108.63 477.559 1108.24 477.559H1100.86"
                      stroke="black" stroke-width="2" stroke-linecap="round" stroke-linejoin="round"/>
            </g>
            <g id="a_walls2">
                <line id="a_walls2_2" x1="1130.5" y1="340" x2="1130.5" y2="350.779" stroke="black"/>
                <line id="a_walls2_1" x1="1132.5" y1="407" x2="1132.5" y2="453.033" stroke="black"/>
            </g>
            <g id="a_rooms2">
                <rect id="a_rtex1" x="1015.5" y="110.5" width="116" height="203" stroke="black"/>
                <rect id="a_rtex2" x="1015.5" y="313.5" width="115" height="26" stroke="black"/>
                <rect id="a_rtex3" x="978.5" y="339.5" width="37" height="42" stroke="black"/>
                <rect id="a_rtex4" x="978.5" y="381.5" width="115" height="103" stroke="black"/>
                <rect id="a_t2_w" x="1055.5" y="484.5" width="77" height="79" stroke="black"/>
                <rect id="r_a21" x="1219.5" y="119.5" width="109" height="110" stroke="black"/>
                <path id="a_rtex5"
                      d="M1328.5 188.608V204.666V250.5H1355.01L1378.5 232.5V205V191.227V177.5H1345.5V188.412L1328.5 188.608Z"
                      stroke="black"/>
                <rect id="r_a23" x="1219.5" y="257.5" width="109" height="111" stroke="black"/>
                <path id="a_rtex6" d="M1328.5 338.5V354.63V401.5H1353.77L1378.5 382.5V326.5H1345.5V338.5H1328.5Z"
                      stroke="black"/>
                <rect id="r_a25" x="1219.5" y="396.5" width="109" height="119" stroke="black"/>
                <path id="a_rtex7" d="M1328.5 489.5V505.69V554.5H1355L1378.5 534.5V506V477.5H1346.5V489.5H1328.5Z"
                      stroke="black"/>
                <rect id="museum" x="1131.5" y="78.5" width="197" height="41" stroke="black"/>
            </g>
            <g id="a_ad_obj2">
                <path
                      d="M1115.61 513V508H1113.99C1113.66 508 1113.39 507.862 1113.19 507.587C1112.99 507.312 1112.95 507.008 1113.06 506.675L1115.16 500.35C1115.3 499.917 1115.54 499.583 1115.9 499.35C1116.26 499.117 1116.66 499 1117.11 499C1117.57 499 1117.97 499.117 1118.33 499.35C1118.69 499.583 1118.93 499.917 1119.06 500.35L1121.16 506.675C1121.28 507.008 1121.24 507.313 1121.04 507.588C1120.84 507.863 1120.57 508.001 1120.24 508H1118.61V513C1118.61 513.283 1118.52 513.521 1118.33 513.713C1118.13 513.905 1117.9 514.001 1117.61 514H1116.61C1116.33 514 1116.09 513.904 1115.9 513.712C1115.71 513.52 1115.62 513.283 1115.61 513ZM1117.11 498C1116.56 498 1116.09 497.804 1115.7 497.413C1115.31 497.022 1115.12 496.551 1115.11 496C1115.11 495.449 1115.31 494.979 1115.7 494.588C1116.1 494.197 1116.57 494.001 1117.11 494C1117.66 493.999 1118.13 494.195 1118.53 494.588C1118.92 494.981 1119.12 495.452 1119.11 496C1119.11 496.548 1118.92 497.019 1118.53 497.413C1118.14 497.807 1117.67 498.003 1117.11 498Z"
                      fill="black"/>
                <path
                      d="M1166.25 109.876H1165C1164.45 109.876 1164 110.324 1164 110.876V111.876C1164 112.428 1164.45 112.876 1165 112.876H1181.5C1182.05 112.876 1182.5 112.428 1182.5 111.876V110.876C1182.5 110.324 1182.05 109.876 1181.5 109.876H1180.25M1166.25 109.876V101M1166.25 109.876H1170.75M1166.25 101H1164.25V99.5L1173.25 94L1182.5 99.5V101H1180.25M1166.25 101H1170.75M1180.25 101H1175.75M1180.25 101V109.876M1170.75 101V109.876M1170.75 101H1175.75M1170.75 109.876H1175.75M1175.75 109.876V101M1175.75 109.876H1180.25"
                      stroke="black" stroke-linecap="round" stroke-linejoin="round"/>
                <g id="a_vm2_1">
                    <rect id="a_vm2_1" x="1135.5" y="532.5" width="18" height="18" stroke="black"/>
                    <path
                          d="M1148.18 538H1139.71V540.286C1139.71 542.495 1141.5 544.286 1143.71 544.286H1144.18C1146.39 544.286 1148.18 542.495 1148.18 540.286V538ZM1148.18 538H1149.29C1150.23 538 1151 538.768 1151 539.714C1151 540.661 1150.23 541.429 1149.29 541.429H1148.18M1139 546H1150.29"
                          stroke="black"/>
                </g>
            </g>
        </g>
    </g>
</svg>
