<svg width="1920" height="2522" viewBox="0 0 1920 2522" fill="none" xmlns="http://www.w3.org/2000/svg">
<g id="Floor4">
<g id="floor4">
<rect id="lift4" x="913.5" y="247.5" width="17" height="17" fill="white" stroke="black"/>
<rect id="ladder4_1" x="937.5" y="266.386" width="52" height="43.3113" fill="white" stroke="black"/>
<rect id="r442" x="1078.5" y="188.5" width="95" height="85" fill="white" stroke="black"/>
<rect id="r451" x="1020.5" y="67.5" width="91" height="78" fill="white" stroke="black"/>
<rect id="r449" x="989.5" y="67.5" width="31" height="78" fill="white" stroke="black"/>
<rect id="r440" x="1041.5" y="188.5" width="37" height="85" fill="white" stroke="black"/>
<rect id="r438" x="989.5" y="188.5" width="52" height="85" fill="white" stroke="black"/>
<rect id="r447a" x="910.5" y="67.5" width="79" height="78" fill="white" stroke="black"/>
<rect id="r447" x="817.5" y="67.5" width="93" height="78" fill="white" stroke="black"/>
<rect id="r436" x="809.5" y="187.5" width="101" height="79" fill="white" stroke="black"/>
<rect id="r434" x="777.5" y="187.5" width="32" height="79" fill="white" stroke="black"/>
<rect id="r432" x="676.5" y="187.5" width="101" height="79" fill="white" stroke="black"/>
<rect id="r4tex1" x="777.5" y="67.5" width="40" height="78" fill="white" stroke="black"/>
<rect id="r445" x="682.5" y="67.5" width="95" height="78" fill="white" stroke="black"/>
<rect id="r443" x="553.5" y="67.5" width="129" height="78.3482" fill="white" stroke="black"/>
<rect id="r441a" x="495.5" y="139.5" width="58" height="50" fill="white" stroke="black"/>
<path id="t4_m1" d="M657.771 266.5H677L676.494 187L610.711 188L610.309 207.502L593 222L645.627 276L657.771 266.5Z" stroke="black" />
<path id="t4_w1" d="M593.391 222L645.391 276L635.391 283.5L635.5 294.5H542.391L542 239H574.391L593.391 222Z" stroke="black"/>
<rect id="r441" x="405.5" y="189.5" width="90" height="77" fill="white" stroke="black"/>
<rect id="r4tex2" x="405.5" y="266.5" width="90" height="44" fill="white" stroke="black"/>
<rect id="r437" x="405.5" y="310.5" width="90" height="77" fill="white" stroke="black"/>
<rect id="r435" x="405.5" y="387.5" width="90" height="110" fill="white" stroke="black"/>
<rect id="r430a" x="542.5" y="294.5" width="93" height="25" fill="white" stroke="black"/>
<rect id="r430" x="542.5" y="319.5" width="93" height="73" fill="white" stroke="black"/>
<rect id="r4tex3" x="542.5" y="392.5" width="93" height="47" fill="white" stroke="black"/>
<rect id="r426" x="542.5" y="439.5" width="93" height="58" fill="white" stroke="black"/>
<g id="r435a">
<mask id="path-27-inside-1_29_364" fill="white">
<path d="M421 497H496V527H421V497Z"/>
</mask>
<path d="M421 497H496V527H421V497Z" fill="white" stroke="black" stroke-width="2" mask="url(#path-27-inside-1_29_364)"/>
</g>
<rect id="ladder4_2" x="368.5" y="526.5" width="53" height="41" fill="white" stroke="black"/>
<rect id="r436a" x="542.5" y="497.5" width="61" height="72" fill="white" stroke="black"/>
<rect id="r433a" x="421.5" y="567.291" width="71" height="30.9454" fill="white" stroke="black"/>
<rect id="r424a" x="542.5" y="569.5" width="61" height="26" fill="white" stroke="black"/>
<rect id="r433a_2" x="402.5" y="598.5" width="90" height="25" fill="white" stroke="black"/>
<rect id="r431" x="402.5" y="623.5" width="90" height="65" fill="white" stroke="black"/>
<rect id="r429" x="402.5" y="688.5" width="90" height="65" fill="white" stroke="black"/>
<rect id="r427" x="402.5" y="753.5" width="90" height="65" fill="white" stroke="black"/>
<rect id="r425" x="402.5" y="818.5" width="90" height="68" fill="white" stroke="black"/>
<rect id="r424" x="542.5" y="595.5" width="93" height="34" fill="white" stroke="black"/>
<rect id="r422a" x="542.5" y="629.5" width="93" height="28" fill="white" stroke="black"/>
<rect id="r422" x="542.5" y="657.5" width="93" height="66" fill="white" stroke="black"/>
<rect id="r420" x="542.5" y="723.5" width="93" height="30" fill="white" stroke="black"/>
<g id="r432a">
<mask id="path-41-inside-2_29_364" fill="white">
<path d="M492 886.244H539V927.464H492V886.244Z"/>
</mask>
<path d="M492 886.244H539V927.464H492V886.244Z" fill="white" stroke="black" stroke-width="2" mask="url(#path-41-inside-2_29_364)"/>
</g>
<path id="t4_m2" d="M635.5 767L635.5 753.5L542.5 753.158L542.5 812.158L574.957 812.158L591.454 830.587L644.957 780.158L635.5 767Z" stroke="black"/>
<path id="t4_w2" d="M591.454 830.588L644.957 780.158L653 789.5L665.5 789.5L665.5 864.5L608.5 864.5L608.5 850L591.454 830.588Z" stroke="black"/>
<rect id="r423" x="538.5" y="907.5" width="78" height="79" fill="white" stroke="black"/>
<rect id="r421" x="616.5" y="907.5" width="84" height="79" fill="white" stroke="black"/>
<rect id="r421a" x="700.5" y="907.5" width="75" height="79" fill="white" stroke="black"/>
<rect id="r419" x="775.5" y="907.5" width="79" height="79" fill="white" stroke="black"/>
<rect id="r4tex4" x="854.5" y="907.5" width="42" height="79" fill="white" stroke="black"/>
<rect id="r418" x="665.5" y="789.5" width="105" height="75" fill="white" stroke="black"/>
<rect id="r416" x="770.5" y="789.5" width="43" height="75" fill="white" stroke="black"/>
<rect id="r414" x="813.5" y="789.5" width="91" height="75" fill="white" stroke="black"/>
<rect id="r418a" x="896.5" y="907.5" width="38" height="66" fill="white" stroke="black"/>
<rect id="r412" x="904.5" y="799.5" width="112" height="65" fill="white" stroke="black"/>
<rect id="ladder4_3" x="934.5" y="973.5" width="52" height="40" fill="white" stroke="black"/>
<rect id="r417a" x="986.5" y="907.5" width="30" height="66" fill="white" stroke="black"/>
<rect id="r417" x="1016.5" y="907.5" width="56" height="83" fill="white" stroke="black"/>
<rect id="r415" x="1072.5" y="907.5" width="67" height="83" fill="white" stroke="black"/>
<rect id="r413" x="1139.5" y="907.5" width="115" height="83" fill="white" stroke="black"/>
<rect id="r411" x="1254.5" y="907.5" width="122" height="83" fill="white" stroke="black"/>
<rect id="r410" x="1016.5" y="788.5" width="107" height="76" fill="white" stroke="black"/>
<rect id="r408" x="1123.5" y="788.5" width="124" height="76" fill="white" stroke="black"/>
<rect id="r409a" x="1376.5" y="871.5" width="46" height="36" fill="white" stroke="black"/>
<path id="t4_m3" d="M1266 788L1247.5 788L1247.5 864.5L1312.5 864.5L1312.5 847L1325.33 833.14L1275.33 779.567L1266 788Z" stroke="black"/>
<path id="t4_w3" d="M1325.33 833.14L1275.52 779.482L1284.5 772L1284.5 759.5L1375.5 759.5L1375.5 816.274L1342.83 816.274L1325.33 833.14Z" stroke="black"/>
<rect id="r409" x="1422.5" y="787.5" width="97" height="84" fill="white" stroke="black"/>
<rect id="r407" x="1422.5" y="702.5" width="97" height="85" fill="white" stroke="black"/>
<g id="r405">
<mask id="path-67-inside-3_29_364" fill="white">
<path d="M1422 609H1520V703H1422V609Z"/>
</mask>
<path d="M1422 609H1520V703H1422V609Z" fill="white" stroke="black" stroke-width="2" mask="url(#path-67-inside-3_29_364)"/>
</g>
<rect id="r4tex5" x="1422.5" y="581.5" width="97" height="28" fill="white" stroke="black"/>
<rect id="r406" x="1284.5" y="659.5" width="91" height="100" fill="white" stroke="black"/>
<rect id="r404" x="1284.5" y="580.5" width="91" height="79" fill="white" stroke="black"/>
<rect id="ladder4_4" x="1496.5" y="507.5" width="55" height="43.3321" fill="white" stroke="black"/>
<g id="r402">
<mask id="path-72-inside-4_29_364" fill="white">
<path d="M1284 369H1376V474H1284V369Z"/>
</mask>
<path d="M1284 369H1376V474H1284V369Z" fill="white" stroke="black" stroke-width="2" mask="url(#path-72-inside-4_29_364)"/>
</g>
<rect id="r401" x="1423.5" y="369.5" width="93" height="104" fill="white" stroke="black"/>
<g id="r4tex6">
<mask id="path-74-inside-5_29_364" fill="white">
<path d="M1284 274H1376V370H1284V274Z"/>
</mask>
<path d="M1284 274H1376V370H1284V274Z" fill="white" stroke="black" stroke-width="2" mask="url(#path-74-inside-5_29_364)"/>
</g>
<rect id="r3tex5" x="1496.5" y="473.5" width="34.5746" height="66" transform="rotate(89.9883 1496.5 473.5)" fill="white" stroke="black"/>
<rect id="r3tex5_2" x="1496.5" y="551.331" width="29.9909" height="66" transform="rotate(89.9883 1496.5 551.331)" fill="white" stroke="black"/>
<rect id="vm4_1" x="571.5" y="832.5" width="17" height="17" fill="white" stroke="black"/>
<rect id="r4tex7" x="1308.5" y="473.5" width="56" height="107" fill="white" stroke="black"/>
</g>
<path id="walls4" d="M538.5 986.5V927H492.5V886.5H402.5V598H421.5V497.5H405.5V189.5H495.5V139.5H553.5V67.5H1111.5V145.5H1173.5V273.5H989.5V309.5H937.5V266.5H658L635.5 283.239V497.5H603.5V595.5H635.5V767L645 780.5L653 789.5H904.5V799.5H1016.36V788.5H1247.5H1266.5L1284.5 772V580.5H1308.5L1307.5 473.5H1284.5V274.5H1423.5V369.5H1516.5V473.5H1496.5V581.5H1519.5V871.5H1422.5V907.5H1376.5V990.5H1016.5V973.5H896.5V986.5H538.5Z" stroke="black"/>
</g>
</svg>
