<svg width="1920" height="2522" viewBox="0 0 1920 2522" fill="none" xmlns="http://www.w3.org/2000/svg">
<g id="Floor1">
<rect width="1920" height="2522" fill="white"/>
<g id="floor1">
<rect id="ladder1_1" x="937.5" y="846.5" width="52" height="40" fill="white" stroke="black"/>
<rect id="r132" x="783.5" y="767.5" width="126" height="79" fill="white" stroke="black"/>
<rect id="r132a" x="675.5" y="767.5" width="108" height="79" fill="white" stroke="black"/>
<path id="r132b" d="M656.885 846.5H675.5V767.5H610.103V787.502L593 801.808L644.812 856L656.885 846.5Z" stroke="black"/>
<path id="t1_w1" d="M593 801.5L644 856L635.5 863.5V874.5H542.5V818H574.5L593 801.5Z" stroke="black"/>
<rect id="r145" x="828.5" y="648.5" width="81" height="78" fill="white" stroke="black"/>
<rect id="r1tex1" x="765.5" y="648.5" width="63" height="78" fill="white" stroke="black"/><rect id="r141" x="630.5" y="648.5" width="135" height="78" fill="white" stroke="black"/>
<rect id="r139" x="546.392" y="648.5" width="85.0296" height="77.644" fill="white" stroke="black"/>
<rect id="r1tex2" x="495.357" y="725.855" width="51.4926" height="41.5451" fill="white" stroke="black"/>
<rect id="r137" x="404.953" y="767.111" width="90.8621" height="87.9579" fill="white" stroke="black"/>
<rect id="r135" x="404.953" y="854.779" width="90.8621" height="112.454" fill="white" stroke="black"/>
<rect id="r133" x="404.953" y="966.944" width="90.8621" height="68.6192" fill="white" stroke="black"/>
<rect id="r130" x="542.5" y="874.5" width="93" height="97" fill="white" stroke="black"/>
<rect id="r1tex3" x="404.953" y="1035.27" width="90.8621" height="40.2558" fill="white" stroke="black"/>
<rect id="r1tex4" x="420.993" y="1075.24" width="74.8227" height="28.6526" fill="white" stroke="black"/>
<rect id="r1tex5" x="542.5" y="970.5" width="93" height="33" fill="white" stroke="black"/>
<rect id="r128" x="542.5" y="1003.5" width="93" height="72" fill="white" stroke="black"/>
<rect id="r128a" x="542.5" y="1075.65" width="71" height="28" fill="white" stroke="black"/>
<rect id="ladder1_2" x="368.5" y="1104.89" width="52.9507" height="40.2558" fill="white" stroke="black"/>
<rect id="r131" x="401.5" y="1175.5" width="91" height="111" fill="white" stroke="black"/>
<rect id="r129" x="401.5" y="1286.5" width="91" height="127" fill="white" stroke="black"/>
<rect id="r1tex6" x="542.5" y="1145.65" width="71" height="29" fill="white" stroke="black"/>
<rect id="r126" x="542.5" y="1174.5" width="93" height="61" fill="white" stroke="black"/>
<rect id="r126_2" x="542.5" y="1235.5" width="93" height="94" fill="white" stroke="black"/>
<rect id="r126b" x="542.5" y="1329.65" width="93" height="36" fill="white" stroke="black"/>
<rect id="r127" x="401.5" y="1413.5" width="91" height="29" fill="white" stroke="black"/>
<rect id="r124" x="664.5" y="1366.5" width="116" height="75" fill="white" stroke="black"/>
<path id="r124a" d="M664.5 1366.5L635.5 1366L586 1402.5L601.5 1415.5V1441.5L664.5 1441V1366.5Z" stroke="black"/>
<rect id="r1tex7" x="779.5" y="1366.5" width="81" height="75" fill="white" stroke="black"/>
<rect id="r120" x="859.5" y="1366.5" width="45" height="75" fill="white" stroke="black"/>
<rect id="r125" x="542.5" y="1483.5" width="80" height="79" fill="white" stroke="black"/>
<rect id="r1tex8" x="622.5" y="1520.5" width="42" height="42" fill="white" stroke="black"/>
<rect id="r123" x="664.5" y="1483.5" width="93" height="79" fill="white" stroke="black"/>
<rect id="r121a" x="757.5" y="1483.5" width="109" height="79" fill="white" stroke="black"/>
<rect id="r121" x="866.5" y="1483.5" width="39" height="79" fill="white" stroke="black"/>
<rect id="r119b" x="904.5" y="1376.5" width="30" height="65" fill="white" stroke="black"/>
<rect id="r119&#208;&#179;" x="905.5" y="1483.5" width="29" height="65" fill="white" stroke="black"/>
<rect id="ladder1_3" x="934.5" y="1548.5" width="52" height="40" fill="white" stroke="black"/>
<rect id="r119&#208;&#178;" x="986.746" y="1483.93" width="29.6207" height="64.7515" fill="white" stroke="black"/>
<rect id="r119a" x="987.5" y="1376.65" width="29" height="65" fill="white" stroke="black"/>
<rect id="r118" x="1016.5" y="1366.5" width="92" height="75" fill="white" stroke="black"/>
<rect id="r117" x="1015.5" y="1483.5" width="206" height="83" fill="white" stroke="black"/>
<rect id="r116" x="1107.5" y="1366.5" width="87" height="75" fill="white" stroke="black"/>
<rect id="r114" x="1193.5" y="1366.5" width="55" height="75" fill="white" stroke="black"/>
<rect id="r115b" x="1249.5" y="1483.5" width="67" height="83" fill="white" stroke="black"/>
<rect id="r115a" x="1316.5" y="1483.5" width="60" height="83" fill="white" stroke="black"/>
<rect id="keys" x="989.5" y="648.649" width="27" height="81" fill="white" stroke="black"/>
<rect id="ladder1_4" x="1376.5" y="1447.5" width="46" height="36" fill="white" stroke="black"/>
<path id="t1_m1" d="M1268.5 1365L1248.09 1366.5L1248.83 1441.65L1314.22 1441L1314.07 1425.66L1326.53 1411.69L1276.5 1357.5L1268.5 1365Z" stroke="black"/>
<path id="t1_w2" d="M1326.69 1411.53L1276.5 1357.5L1284.36 1349.14L1284.25 1338L1375.53 1337.1L1376.1 1394.33L1344.69 1394.64L1326.69 1411.53Z" stroke="black"/>
<rect id="r113a" x="1422.5" y="1402.5" width="97" height="46" fill="white" stroke="black"/>
<rect id="r113" x="1422.73" y="1367.9" width="96.6946" height="35.0989" fill="white" stroke="black"/>
<rect id="r111" x="1422.73" y="1300.86" width="96.6946" height="68.6192" fill="white" stroke="black"/>
<rect id="t1tex9" x="1284.2" y="1301.5" width="90.8621" height="36.3881" fill="white" stroke="black"/>
<rect id="r110" x="1284.2" y="1246.71" width="90.8621" height="54.4375" fill="white" stroke="black"/>
<rect id="r109" x="1422.73" y="1236.4" width="96.6946" height="64.7515" fill="white" stroke="black"/>
<rect id="r107" x="1422.73" y="1215.77" width="96.6946" height="20.9172" fill="white" stroke="black"/>
<rect id="r108" x="1284.2" y="1187.4" width="90.8621" height="59.5945" fill="white" stroke="black"/>
<rect id="r106" x="1284.2" y="1157.75" width="90.8621" height="29.9419" fill="white" stroke="black"/>
<rect id="r106a" x="1301.7" y="1130.68" width="73.3645" height="27.3634" fill="white" stroke="black"/>
<rect id="r105" x="1422.73" y="1159.04" width="96.6946" height="57.016" fill="white" stroke="black"/>
<rect id="r105a" x="1422.73" y="1130.68" width="73.3645" height="28.6526" fill="white" stroke="black"/>
<rect id="ladder1_5" x="1495.63" y="1088.13" width="55.867" height="42.8343" fill="white" stroke="black"/>
<rect id="r104" x="1284.5" y="1047.5" width="91" height="34" fill="white" stroke="black"/>
<rect id="r103a" x="1422.73" y="1059.77" width="73.3645" height="28.6526" fill="white" stroke="black"/>
<rect id="r103" x="1422.73" y="1028.83" width="93.7783" height="31.2311" fill="white" stroke="black"/>
<rect id="r102" x="1284.5" y="945.5" width="91" height="101" fill="white" stroke="black"/>
<rect id="r101" x="1422.73" y="981.125" width="93.7783" height="47.9913" fill="white" stroke="black"/>
<rect id="r100" x="1375.5" y="885.5" width="51" height="70" fill="white" stroke="black"/>
<rect id="coworking" x="989.5" y="729.5" width="109" height="116" fill="white" stroke="black"/>
<rect id="r1tex10" x="1016.5" y="691.5" width="82" height="38" fill="white" stroke="black"/>
<rect id="r1tex11" x="1016.5" y="648.5" width="82" height="43" fill="white" stroke="black"/>
<rect id="r1tex12" x="1284.2" y="885.721" width="90.8621" height="59.5945" fill="white" stroke="black"/>
<g id="to_theather">
<line id="to_theather_w3" x1="492.5" y1="1442" x2="492.5" y2="1482" stroke="black"/>
<line id="to_theather_w2" x1="493" y1="1481.5" x2="507" y2="1481.5" stroke="black"/>
<line id="to_theather_w1" x1="506.5" y1="1481" x2="506.5" y2="1564" stroke="black"/>
</g>
<rect id="r1tex13" x="1422.73" y="955.34" width="93.7783" height="26.0742" fill="white" stroke="black"/>
<g id="walls1">
<line id="walls1_1" x1="909" y1="846.5" x2="938" y2="846.5" stroke="black"/>
<line id="walls1_2" x1="401.5" y1="1176" x2="401.5" y2="1145" stroke="black"/>
<path id="walls1_3" d="M542.5 1365.5V1441" stroke="black"/>
<path id="walls1_4" d="M542 1441L601 1441.5" stroke="black"/>
<line id="walls1_5" x1="1222" y1="1566.5" x2="1249" y2="1566.5" stroke="black"/>
</g>
</g>
<g id="auditorium1">
<rect id="r_a11" x="1027.34" y="112.5" width="114.789" height="154" fill="white" stroke="black"/>
<rect id="rtex1" x="1142.08" y="80.5" width="195.842" height="42" fill="white" stroke="black"/>
<rect id="r_a13" x="1229.45" y="122.5" width="108.474" height="110" fill="white" stroke="black"/>
<path id="rtex2" d="M1337.89 191.608V207.622V253.5H1365.01L1390 235.137V180H1355.97V191.608H1337.89Z" stroke="black"/>
<rect id="r_a15" x="1229.45" y="260.5" width="108.474" height="111" fill="white" stroke="black"/>
<path id="rtex3" d="M1337.94 340.922L1337.89 357.5L1337.89 405H1363.16L1387.89 385.627V329H1354.21V340.922H1337.94Z" stroke="black"/>
<rect id="r_a17" x="1229.45" y="399.5" width="108.474" height="119" fill="white" stroke="black"/>
<path id="rtex4" d="M1337.89 492V508.5V556.5H1364.74L1389.47 537V480H1355.79V492H1337.89Z" stroke="black"/>
<rect id="a_ladder1_1" x="1103.13" y="449.5" width="39" height="38" fill="white" stroke="black"/>
<rect id="a_t1_m" x="1065.24" y="487.5" width="76.8947" height="78" fill="white" stroke="black"/>
<rect id="rtex5" x="1142.08" y="519.5" width="70.5789" height="46" fill="white" stroke="black"/>
<rect id="a_checkroom" x="1027.34" y="266.5" width="114.789" height="50" fill="white" stroke="black"/>
<rect id="a_ladder1_2" x="1065.5" y="316.5" width="77" height="25" fill="white" stroke="black"/>
<g id="a_walls1">
<path id="a_walls1_5" d="M1212.63 565.5L1338.42 565.5" stroke="black"/>
<line id="a_walls1_4" x1="1337.92" y1="565" x2="1337.92" y2="557" stroke="black"/>
<line id="a_walls1_3" x1="1337.92" y1="260" x2="1337.92" y2="254" stroke="black"/>
<line id="a_walls1_2" x1="1142.08" y1="342" x2="1142.08" y2="352.772" stroke="black"/>
<line id="a_walls1_1" x1="1142.08" y1="403" x2="1142.08" y2="449" stroke="black"/>
</g>
<g id="a_exit">
<path id="a_exit_w3" d="M1065.5 377V341.5H990.5V363.5" stroke="black"/>
<path id="a_exit_w2" d="M990.5 387.5V487.5H1026.5" stroke="black"/>
<path id="a_exit_w1" d="M1044 487.703L1065.5 487.5V406" stroke="black"/>
</g>
</g>
<path id="pathway_courtyard" d="M652 1150H915.5V1319M1003 1319V1150H1255.5M1255.5 1084H1003V997.5M915.5 997.5V1084H652" stroke="black"/>
</g>
</svg>
