<svg width="1920" height="2522" viewBox="0 0 1920 2522" fill="none" xmlns="http://www.w3.org/2000/svg">

    <g id="floor1">
        <path id="walls1"
              d="M543.874 1567V1824.5H503.997H423.981V1755V1709.5V1693.5V1666.5H508.905V1542.5H402L402.5 1145H421.5V1075H402.5V766H495.5V722H547.5V644H910.5H989.5H1098.5V850.5H989.5V843.5L658 844L635.924 860.5L635.5 969.5V1075H613.5V1103V1145V1172H635.5V1364.78L905 1366V1376H935H988H1016.97V1366H1248L1269 1364.5L1284.5 1349L1285.21 1158.5L1284.86 1120L1284.5 1081.5V885.5L1426.5 885V955.5H1520.5V1059.59L1496.5 1059.5V1154.5H1519.5V1448.5H1421.5V1483.5H1376.5V1567H1016V1550H906L906.549 1567H543.874Z"
              stroke="black"/>
        <g id="theather">
            <g id="th_ladder1">
                <g id="th_ladder1_1">
                    <rect id="th_ladder1_1" x="383.5" y="1666.5" width="40" height="27" stroke="black"/>
                    <path d="M416 1671.54H408.667C408.114 1671.54 407.667 1671.99 407.667 1672.54V1679C407.667 1679.55 407.219 1680 406.667 1680H400.333C399.781 1680 399.333 1680.45 399.333 1681V1687.46C399.333 1688.01 398.886 1688.46 398.333 1688.46H391"
                          stroke="black" stroke-width="2" stroke-linecap="round" stroke-linejoin="round"/>
                </g>
                <g id="th_ladder1_2">
                    <rect id="th_ladder1_2" x="503.5" y="1824.5" width="40" height="27" stroke="black"/>
                    <path d="M536 1829.54H528.667C528.114 1829.54 527.667 1829.99 527.667 1830.54V1837C527.667 1837.55 527.219 1838 526.667 1838H520.333C519.781 1838 519.333 1838.45 519.333 1839V1845.46C519.333 1846.01 518.886 1846.46 518.333 1846.46H511"
                          stroke="black" stroke-width="2" stroke-linecap="round" stroke-linejoin="round"/>
                </g>
            </g>
            <g id="th_rooms">
                <rect id="canteen" x="543.5" y="1666.5" width="116" height="158" stroke="black"/>
                <rect id="th_r1tex1" x="659.5" y="1666.5" width="218" height="158" stroke="black"/>
                <rect id="th_checkroom" x="543.5" y="1626.5" width="52" height="40" stroke="black"/>
                <rect id="th_t1_m" x="503.5" y="1715.5" width="40" height="27" stroke="black"/>
                <rect id="th_t1_w" x="503.5" y="1742.5" width="40" height="27" stroke="black"/>
            </g>
            <g id="th_ad_obl1">
                <path
                        d="M520.5 1738V1731.5H520C519.717 1731.5 519.479 1731.4 519.288 1731.21C519.097 1731.02 519.001 1730.78 519 1730.5V1726C519 1725.45 519.196 1724.98 519.588 1724.59C519.98 1724.2 520.451 1724 521 1724H524C524.55 1724 525.021 1724.2 525.413 1724.59C525.805 1724.98 526.001 1725.45 526 1726V1730.5C526 1730.78 525.904 1731.02 525.712 1731.21C525.52 1731.41 525.283 1731.5 525 1731.5H524.5V1738C524.5 1738.28 524.404 1738.52 524.212 1738.71C524.02 1738.91 523.783 1739 523.5 1739H521.5C521.217 1739 520.979 1738.9 520.788 1738.71C520.597 1738.52 520.501 1738.28 520.5 1738ZM522.5 1723C521.95 1723 521.479 1722.8 521.088 1722.41C520.697 1722.02 520.501 1721.55 520.5 1721C520.499 1720.45 520.695 1719.98 521.088 1719.59C521.481 1719.2 521.951 1719 522.5 1719C523.049 1719 523.52 1719.19 523.913 1719.59C524.306 1719.98 524.502 1720.45 524.5 1721C524.498 1721.55 524.302 1722.02 523.913 1722.41C523.524 1722.81 523.053 1723 522.5 1723Z"
                        fill="black"/>
                <path
                        d="M521.614 1765V1760H519.989C519.656 1760 519.389 1759.86 519.189 1759.59C518.989 1759.31 518.948 1759.01 519.064 1758.68L521.164 1752.35C521.298 1751.92 521.543 1751.58 521.901 1751.35C522.259 1751.12 522.664 1751 523.114 1751C523.565 1751 523.969 1751.12 524.327 1751.35C524.685 1751.58 524.931 1751.92 525.064 1752.35L527.164 1758.68C527.281 1759.01 527.239 1759.31 527.039 1759.59C526.839 1759.86 526.573 1760 526.239 1760H524.614V1765C524.614 1765.28 524.518 1765.52 524.326 1765.71C524.134 1765.91 523.897 1766 523.614 1766H522.614C522.331 1766 522.094 1765.9 521.902 1765.71C521.711 1765.52 521.615 1765.28 521.614 1765ZM523.114 1750C522.564 1750 522.094 1749.8 521.702 1749.41C521.311 1749.02 521.115 1748.55 521.114 1748C521.114 1747.45 521.31 1746.98 521.702 1746.59C522.095 1746.2 522.566 1746 523.114 1746C523.663 1746 524.134 1746.19 524.527 1746.59C524.921 1746.98 525.116 1747.45 525.114 1748C525.112 1748.55 524.917 1749.02 524.527 1749.41C524.138 1749.81 523.667 1750 523.114 1750Z"
                        fill="black"/>
                <g id="th_exit">
                    <rect id="th_exit_3" x="414.5" y="1717.5" width="19" height="19" stroke="black"/>
                    <path d="M426.091 1734V1731.01C426.091 1730.38 425.787 1729.78 425.274 1729.4L424.273 1728.67M424.273 1728.67L425.364 1724.33M424.273 1728.67L423.182 1728M425.364 1724.33L423.909 1724M425.364 1724.33L426.711 1726.31C427.012 1726.75 427.478 1727.05 428.003 1727.15L429 1727.33M423.182 1728L423.909 1724M423.182 1728L421.727 1734M423.909 1724L422.167 1724.8C421.456 1725.12 421 1725.83 421 1726.62V1727.33M426.455 1721.67C426.455 1722.03 426.129 1722.33 425.727 1722.33C425.326 1722.33 425 1722.03 425 1721.67C425 1721.3 425.326 1721 425.727 1721C426.129 1721 426.455 1721.3 426.455 1721.67Z"
                          stroke="black" stroke-width="2" stroke-linecap="round" stroke-linejoin="round"/>
                </g>
            </g>
            <g id="th_checkroom_2">
                <path d="M567.536 1638.91C567.536 1637.85 568.486 1637 569.66 1637C570.833 1637 571.784 1637.85 571.784 1638.91C571.784 1639.4 571.604 1639.86 571.292 1640.2C570.695 1640.85 569.802 1641.5 569.802 1642.35V1642.63M569.802 1642.63C570.542 1642.62 571.268 1642.83 571.884 1643.24L579.317 1648.25C580.623 1649.13 579.93 1651 578.297 1651H561.703C560.087 1651 559.383 1649.17 560.655 1648.27L567.751 1643.28C568.353 1642.86 569.068 1642.63 569.801 1642.63L569.802 1642.63Z"
                      stroke="black" stroke-width="1.5" stroke-linecap="round"/>
            </g>
        </g>
        <g id="c1">
            <g id="ladder1">
                <g id="ladder1_1">
                    <rect id="ladder1_1" x="934.5" y="843.5" width="55" height="42" stroke="black"/>
                    <path d="M979 853H968.667C968.114 853 967.667 853.448 967.667 854V863.5C967.667 864.052 967.219 864.5 966.667 864.5H957.333C956.781 864.5 956.333 864.948 956.333 865.5V875C956.333 875.552 955.886 876 955.333 876H945"
                          stroke="black" stroke-width="2" stroke-linecap="round" stroke-linejoin="round"/>
                </g>
                <g id="ladder1_2">
                    <rect id="ladder1_2" x="366.5" y="1103.5" width="55" height="42" stroke="black"/>
                    <path d="M411 1113H400.667C400.114 1113 399.667 1113.45 399.667 1114V1123.5C399.667 1124.05 399.219 1124.5 398.667 1124.5H389.333C388.781 1124.5 388.333 1124.95 388.333 1125.5V1135C388.333 1135.55 387.886 1136 387.333 1136H377"
                          stroke="black" stroke-width="2" stroke-linecap="round" stroke-linejoin="round"/>
                </g>
                <g id="ladder1_3">
                    <rect id="ladder1_3" x="932.5" y="1550.5" width="55" height="42" stroke="black"/>
                    <path d="M977 1560H966.667C966.114 1560 965.667 1560.45 965.667 1561V1570.5C965.667 1571.05 965.219 1571.5 964.667 1571.5H955.333C954.781 1571.5 954.333 1571.95 954.333 1572.5V1582C954.333 1582.55 953.886 1583 953.333 1583H943"
                          stroke="black" stroke-width="2" stroke-linecap="round" stroke-linejoin="round"/>
                </g>
                <g id="ladder1_4">
                    <rect x="1376.5" y="1447.5" width="45" height="36" stroke="black"/>
                    <path id="ladder1_4"
                          d="M1416.5 1454.5H1406.17C1405.61 1454.5 1405.17 1454.95 1405.17 1455.5V1465C1405.17 1465.55 1404.72 1466 1404.17 1466H1394.83C1394.28 1466 1393.83 1466.45 1393.83 1467V1476.5C1393.83 1477.05 1393.39 1477.5 1392.83 1477.5H1382.5"
                          stroke="black" stroke-width="2" stroke-linecap="round" stroke-linejoin="round"/>
                </g>
                <g id="ladder1_5">
                    <rect id="ladder1_5" x="1496.5" y="1083.5" width="55" height="42" stroke="black"/>
                    <path
                            d="M1541 1093H1530.67C1530.11 1093 1529.67 1093.45 1529.67 1094V1103.5C1529.67 1104.05 1529.22 1104.5 1528.67 1104.5H1519.33C1518.78 1104.5 1518.33 1104.95 1518.33 1105.5V1115C1518.33 1115.55 1517.89 1116 1517.33 1116H1507"
                            stroke="black" stroke-width="2" stroke-linecap="round" stroke-linejoin="round"/>
                </g>
            </g>
            <g id="rooms1">
                <rect id="r132" x="784.5" y="764.5" width="126" height="79" stroke="black"/>
                <rect id="r132a" x="676.5" y="764.5" width="108" height="79" stroke="black"/>
                <path id="r132b" d="M657.5 843.5H676.5V764.5L610.5 765.5V784.5L592 800.5L644.5 854L657.5 843.5Z"
                      stroke="black"/>
                <path id="t1_w1" d="M592 800.5L644 854L636 860.5L635.5 874.5H542.5L542 817.5H574L592 800.5Z"
                      stroke="black"/>
                <rect id="r145" x="829.5" y="644.5" width="81" height="78" stroke="black"/>
                <rect id="r1tex1" x="766.5" y="644.5" width="63" height="78" stroke="black"/>
                <rect id="r141" x="631.5" y="644.5" width="135" height="78" stroke="black"/>
                <rect id="r139" x="547.5" y="644.5" width="84" height="78" stroke="black"/>
                <rect id="r1tex2" x="495.5" y="722.5" width="52" height="44" stroke="black"/>
                <rect id="r137" x="402.5" y="766.5" width="93" height="89" stroke="black"/>
                <rect id="r135" x="402.5" y="855.5" width="93" height="112" stroke="black"/>
                <rect id="r133" x="402.5" y="967.5" width="93" height="68" stroke="black"/>
                <rect id="r130" x="542.5" y="874.5" width="93" height="96" stroke="black"/>
                <rect id="r1tex3" x="402.5" y="1035.5" width="93" height="40" stroke="black"/>
                <rect id="t1tex9" x="1284.71" y="1301.5" width="90.9178" height="36" stroke="black"/>
                <rect id="r1tex4" x="421.5" y="1075.5" width="74" height="28" stroke="black"/>
                <rect id="r1tex5" x="542.5" y="970.5" width="93" height="33" stroke="black"/>
                <rect id="r128" x="542.5" y="1003.5" width="93" height="72" stroke="black"/>
                <rect id="r128a" x="542.5" y="1075.5" width="71" height="28" stroke="black"/>
                <rect id="r131" x="402.5" y="1175.5" width="90" height="111" stroke="black"/>
                <rect id="r129" x="402.5" y="1286.5" width="90" height="127" stroke="black"/>
                <rect id="r1tex6" x="542.5" y="1145.5" width="71" height="27" stroke="black"/>
                <rect id="r126" x="542.5" y="1172.5" width="93" height="63" stroke="black"/>
                <rect id="r126_2" x="542.5" y="1235.5" width="93" height="94" stroke="black"/>
                <rect id="r126b" x="542.5" y="1329.5" width="93" height="36" stroke="black"/>
                <rect id="r127" x="402.5" y="1413.5" width="90" height="29" stroke="black"/>
                <rect id="r124" x="665.5" y="1365.5" width="116" height="76" stroke="black"/>
                <path id="rtex14" d="M636 1366L542.5 1365.5L542 1442H601.957V1416L586.205 1403L636 1366Z"
                      stroke="black"/>
                <path id="r124a"
                      d="M665.5 1365.5L635.5 1365.5L587 1403.5L602.321 1415.5V1441.5L665.265 1441L665.5 1365.5Z"
                      stroke="black"/>
                <rect id="r1tex7" x="781.5" y="1365.5" width="79" height="76" stroke="black"/>
                <rect id="r120" x="860.5" y="1365.5" width="45" height="76" stroke="black"/>
                <rect id="r125" x="543.374" y="1483.5" width="79.9276" height="84" stroke="black"/>
                <rect id="r1tex8" x="623.302" y="1520.5" width="41.9616" height="47" stroke="black"/>
                <rect id="r123" x="665.265" y="1483.5" width="92.916" height="84" stroke="black"/>
                <rect id="r121a" x="758.182" y="1483.5" width="108.902" height="84" stroke="black"/>
                <rect id="r121" x="867.084" y="1483.5" width="38.9643" height="84" stroke="black"/>
                <rect id="r119b" x="905.051" y="1376.5" width="29.9723" height="65" stroke="black"/>
                <rect id="r119g" x="906.05" y="1483.5" width="25.9759" height="67" stroke="black"/>
                <rect id="r119v" x="987.5" y="1483.5" width="28" height="67" stroke="black"/>
                <rect id="r119a" x="987.976" y="1376.5" width="28.9732" height="65" stroke="black"/>
                <rect id="r118" x="1016.95" y="1366.5" width="91.9169" height="75" stroke="black"/>
                <rect id="r117" x="1015.95" y="1483.5" width="205.815" height="84" stroke="black"/>
                <rect id="r116" x="1107.87" y="1366.5" width="86.9214" height="75" stroke="black"/>
                <rect id="r114" x="1193.79" y="1366.5" width="53.9508" height="75" stroke="black"/>
                <rect id="r115b" x="1221.77" y="1483.5" width="94.9142" height="84" stroke="black"/>
                <rect id="r115a" x="1316.5" y="1483.5" width="60" height="84" stroke="black"/>
                <rect id="r113a" x="1421.5" y="1402.5" width="98" height="46" stroke="black"/>
                <rect id="r113" x="1422.81" y="1367.9" width="96.6073" height="35.0989" stroke="black"/>
                <path id="t1_m1"
                      d="M1268.5 1364.5L1247.5 1366V1441.5H1314.5V1425.5L1327.5 1411.5L1277 1357L1268.5 1364.5Z"
                      stroke="black"/>
                <path id="t1_w2"
                      d="M1327.5 1411.5L1276.5 1357L1284.5 1349V1337.5H1375.5L1376.5 1395.5H1345.5L1327.5 1411.5Z"
                      stroke="black"/>
                <rect id="r111" x="1422.81" y="1300.86" width="96.6073" height="68.6192" stroke="black"/>
                <rect id="r110" x="1284.71" y="1246.5" width="90.9178" height="55" stroke="black"/>
                <rect id="r109" x="1422.81" y="1236.4" width="96.6073" height="64.7515" stroke="black"/>
                <rect id="r107" x="1422.81" y="1215.77" width="96.6073" height="20.9172" stroke="black"/>
                <rect id="r108" x="1284.71" y="1187.5" width="90.9178" height="59" stroke="black"/>
                <rect id="r106" x="1284.71" y="1158.5" width="90.9178" height="29" stroke="black"/>
                <rect id="r106a" x="1284.71" y="1130.5" width="90.9178" height="28" stroke="black"/>
                <rect id="r105" x="1422.5" y="1154.5" width="97" height="61" stroke="black"/>
                <rect id="r105a" x="1422.5" y="1125.5" width="74" height="29" stroke="black"/>
                <rect id="r104" x="1284.71" y="1047.5" width="90.9178" height="34" stroke="black"/>
                <rect id="r103a" x="1423.5" y="1059.5" width="73" height="24" stroke="black"/>
                <rect id="r103" x="1423.5" y="1028.5" width="97" height="31" stroke="black"/>
                <rect id="r102" x="1284.71" y="945.5" width="90.9178" height="102" stroke="black"/>
                <rect id="r101" x="1423.5" y="981.5" width="97" height="47" stroke="black"/>
                <rect id="r100" x="1375.63" y="885.5" width="50.9535" height="70" stroke="black"/>
                <rect id="coworking" x="989.5" y="729.5" width="109" height="121" stroke="black"/>
                <rect id="r1tex10" x="1016.5" y="691.5" width="82" height="38" stroke="black"/>
                <rect id="r1tex11" x="1016.5" y="644.5" width="82" height="47" stroke="black"/>
                <rect id="r1tex12" x="1284.71" y="885.5" width="90.9178" height="60" stroke="black"/>
                <rect id="r1tex13" x="1423.5" y="955.5" width="97" height="26" stroke="black"/>
                <rect id="keys" x="989.5" y="644.5" width="27" height="85" stroke="black"/>
            </g>
            <g id="ad_obj1">
                <path d="M567.614 856V851H565.989C565.656 851 565.389 850.862 565.189 850.587C564.989 850.312 564.948 850.008 565.064 849.675L567.164 843.35C567.298 842.917 567.543 842.583 567.901 842.35C568.259 842.117 568.664 842 569.114 842C569.565 842 569.969 842.117 570.327 842.35C570.685 842.583 570.931 842.917 571.064 843.35L573.164 849.675C573.281 850.008 573.239 850.313 573.039 850.588C572.839 850.863 572.573 851.001 572.239 851H570.614V856C570.614 856.283 570.518 856.521 570.326 856.713C570.134 856.905 569.897 857.001 569.614 857H568.614C568.331 857 568.094 856.904 567.902 856.712C567.711 856.52 567.615 856.283 567.614 856ZM569.114 841C568.564 841 568.094 840.804 567.702 840.413C567.311 840.022 567.115 839.551 567.114 839C567.114 838.449 567.31 837.979 567.702 837.588C568.095 837.197 568.566 837.001 569.114 837C569.663 836.999 570.134 837.195 570.527 837.588C570.921 837.981 571.116 838.452 571.114 839C571.112 839.548 570.917 840.019 570.527 840.413C570.138 840.807 569.667 841.003 569.114 841Z"
                      fill="black"/>
                <path d="M1269.5 1424V1417.5H1269C1268.72 1417.5 1268.48 1417.4 1268.29 1417.21C1268.1 1417.02 1268 1416.78 1268 1416.5V1412C1268 1411.45 1268.2 1410.98 1268.59 1410.59C1268.98 1410.2 1269.45 1410 1270 1410H1273C1273.55 1410 1274.02 1410.2 1274.41 1410.59C1274.81 1410.98 1275 1411.45 1275 1412V1416.5C1275 1416.78 1274.9 1417.02 1274.71 1417.21C1274.52 1417.41 1274.28 1417.5 1274 1417.5H1273.5V1424C1273.5 1424.28 1273.4 1424.52 1273.21 1424.71C1273.02 1424.91 1272.78 1425 1272.5 1425H1270.5C1270.22 1425 1269.98 1424.9 1269.79 1424.71C1269.6 1424.52 1269.5 1424.28 1269.5 1424ZM1271.5 1409C1270.95 1409 1270.48 1408.8 1270.09 1408.41C1269.7 1408.02 1269.5 1407.55 1269.5 1407C1269.5 1406.45 1269.7 1405.98 1270.09 1405.59C1270.48 1405.2 1270.95 1405 1271.5 1405C1272.05 1405 1272.52 1405.19 1272.91 1405.59C1273.31 1405.98 1273.5 1406.45 1273.5 1407C1273.5 1407.55 1273.3 1408.02 1272.91 1408.41C1272.52 1408.81 1272.05 1409 1271.5 1409Z"
                      fill="black"/>
                <path d="M1346.61 1374V1369H1344.99C1344.66 1369 1344.39 1368.86 1344.19 1368.59C1343.99 1368.31 1343.95 1368.01 1344.06 1367.68L1346.16 1361.35C1346.3 1360.92 1346.54 1360.58 1346.9 1360.35C1347.26 1360.12 1347.66 1360 1348.11 1360C1348.57 1360 1348.97 1360.12 1349.33 1360.35C1349.69 1360.58 1349.93 1360.92 1350.06 1361.35L1352.16 1367.68C1352.28 1368.01 1352.24 1368.31 1352.04 1368.59C1351.84 1368.86 1351.57 1369 1351.24 1369H1349.61V1374C1349.61 1374.28 1349.52 1374.52 1349.33 1374.71C1349.13 1374.91 1348.9 1375 1348.61 1375H1347.61C1347.33 1375 1347.09 1374.9 1346.9 1374.71C1346.71 1374.52 1346.62 1374.28 1346.61 1374ZM1348.11 1359C1347.56 1359 1347.09 1358.8 1346.7 1358.41C1346.31 1358.02 1346.12 1357.55 1346.11 1357C1346.11 1356.45 1346.31 1355.98 1346.7 1355.59C1347.1 1355.2 1347.57 1355 1348.11 1355C1348.66 1355 1349.13 1355.19 1349.53 1355.59C1349.92 1355.98 1350.12 1356.45 1350.11 1357C1350.11 1357.55 1349.92 1358.02 1349.53 1358.41C1349.14 1358.81 1348.67 1359 1348.11 1359Z"
                      fill="black"/>
                <g id="inside_exit1">
                    <rect id="inside_exit1" x="604.5" y="1114.5" width="19" height="19" stroke="black"/>
                    <path d="M613.417 1120H610C608.895 1120 608 1120.9 608 1122V1126.67C608 1127.77 608.895 1128.67 610 1128.67H613.417M617.75 1124.33H611.792M611.792 1124.33L613.417 1122.71M611.792 1124.33L613.417 1125.96"
                          stroke="black" stroke-linecap="round" stroke-linejoin="round"/>

                </g>
                <g id="inside_exit2">
                    <rect id="inside_exit2" x="952.5" y="1366.5" width="19" height="19" stroke="black"/>
                    <path d="M958.542 1375.79V1379.21C958.542 1380.31 959.437 1381.21 960.542 1381.21H965.208C966.313 1381.21 967.208 1380.31 967.208 1379.21V1375.79M962.875 1371.46V1377.42M962.875 1377.42L961.25 1375.79M962.875 1377.42L964.5 1375.79"
                          stroke="black" stroke-linecap="round" stroke-linejoin="round"/>

                </g>
                <g id="inside_exit3">
                    <rect id="inside_exit1" x="1275.5" y="1097.5" width="19" height="19" stroke="black"/>
                    <path d="M1285.33 1111.67H1288.75C1289.85 1111.67 1290.75 1110.77 1290.75 1109.67V1105C1290.75 1103.9 1289.85 1103 1288.75 1103H1285.33M1281 1107.33H1286.96M1286.96 1107.33L1285.33 1108.96M1286.96 1107.33L1285.33 1105.71"
                          stroke="black" stroke-linecap="round" stroke-linejoin="round"/>

                </g>
                <g id="exit">
                    <rect id="exit" x="938.5" y="635.5" width="19" height="19" stroke="black"/>
                    <path d="M950.091 652V649.013C950.091 648.376 949.787 647.777 949.274 647.401L948.273 646.667M948.273 646.667L949.364 642.333M948.273 646.667L947.182 646M949.364 642.333L947.909 642M949.364 642.333L950.711 644.31C951.012 644.752 951.478 645.054 952.003 645.151L953 645.333M947.182 646L947.909 642M947.182 646L945.727 652M947.909 642L946.167 642.799C945.456 643.124 945 643.835 945 644.617V645.333M950.455 639.667C950.455 640.035 950.129 640.333 949.727 640.333C949.326 640.333 949 640.035 949 639.667C949 639.298 949.326 639 949.727 639C950.129 639 950.455 639.298 950.455 639.667Z"
                          stroke="black" stroke-width="2" stroke-linecap="round" stroke-linejoin="round"/>
                </g>
                <g id="lift1">
                    <rect id="lift1" x="913.5" y="822.5" width="19" height="19" stroke="black"/>
                    <path d="M923 829.529H926C926.552 829.529 927 829.977 927 830.529V837C927 837.552 926.552 838 926 838H923M923 829.529H920C919.448 829.529 919 829.977 919 830.529V837C919 837.552 919.448 838 920 838H923M923 829.529V838M920 827.059L921 826L922 827.059M924 826L925 827.059L926 826"
                          stroke="black"/>
                </g>
            </g>
        </g>
        <g id="auditorium1">
            <path id="walls2"
                  d="M1066.5 566.5V487L992 486.799L992 341.87L1066.5 341.5V315.5H1029.5V111.5H1143.5V79.5H1339.5L1339.2 566.5H1066.5Z"
                  stroke="black"/>
            <g id="a_ladder1">
                <g id="a_ladder1_2">
                    <rect id="ladder1_2" x="1088.5" y="445.5" width="55" height="42" stroke="black"/>
                    <path d="M1133 455H1122.67C1122.11 455 1121.67 455.448 1121.67 456V465.5C1121.67 466.052 1121.22 466.5 1120.67 466.5H1111.33C1110.78 466.5 1110.33 466.948 1110.33 467.5V477C1110.33 477.552 1109.89 478 1109.33 478H1099"
                          stroke="black" stroke-width="2" stroke-linecap="round" stroke-linejoin="round"/>
                </g>
                <g id="a_ladder1_1">
                    <rect id="ladder1_1" x="1066.5" y="315.5" width="77" height="26" stroke="black"/>
                    <path d="M1118 321H1109.79C1109.36 321 1109 321.312 1109 321.696V328.304C1109 328.688 1108.64 329 1108.21 329H1100.79C1100.36 329 1100 329.312 1100 329.696V336.304C1100 336.688 1099.64 337 1099.21 337H1091"
                          stroke="black" stroke-width="2" stroke-linecap="round" stroke-linejoin="round"/>
                </g>
            </g>
            <path id="a_walls1" d="M1143.5 352.5V341.5H1066.5V487.5H1088.5V445.5H1143.5V403.5" stroke="black"/>
            <g id="a_rooms1">
                <rect id="rtex1" x="1143.5" y="79.5" width="196" height="43" stroke="black"/>
                <rect id="a_r11" x="1029.5" y="111.5" width="114" height="155" stroke="black"/>
                <rect id="r_a13" x="1230.5" y="122.5" width="109" height="110" stroke="black"/>
                <path id="rtex2"
                      d="M1339.5 191.608V207.666V253.5H1366.01L1389.5 235.5V208V194.227V180.5H1356.5V191.412L1339.5 191.608Z"
                      stroke="black"/>
                <rect id="r_a15" x="1230.5" y="260.5" width="109" height="111" stroke="black"/>
                <path id="rtex3" d="M1339.5 341.5V357.63V404.5H1364.77L1389.5 385.5V329.5H1356.5V341.5H1339.5Z"
                      stroke="black"/>
                <rect id="a_t1_m" x="1066.5" y="487.5" width="77" height="79" stroke="black"/>
                <rect id="r_a17" x="1230.5" y="399.5" width="109" height="119" stroke="black"/>
                <path id="rtex4" d="M1339.5 492.5V508.69V557.5H1366L1389.5 537.5V509V480.5H1357.5V492.5H1339.5Z"
                      stroke="black"/>
                <rect id="rtex5" x="1143.5" y="519.5" width="70" height="47" stroke="black"/>
                <rect id="a_checkroom" x="1029.5" y="266.5" width="114" height="49" stroke="black"/>
            </g>
            <g id="a_ad_obj1">
                <g id="a_vm1">
                    <rect id="a_vm1" x="1146.5" y="425.5" width="18" height="18" stroke="black"/>
                    <path d="M1159.18 431H1150.71V433.286C1150.71 435.495 1152.5 437.286 1154.71 437.286H1155.18C1157.39 437.286 1159.18 435.495 1159.18 433.286V431ZM1159.18 431H1160.29C1161.23 431 1162 431.768 1162 432.714C1162 433.661 1161.23 434.429 1160.29 434.429H1159.18M1150 439H1161.29"
                          stroke="black"/>
                </g>
                <g id="atm">

                    <rect id="atm" x="1146.5" y="449.5" width="18" height="18" stroke="black"/>
                    <path d="M1162 457.5V461C1162 462.105 1161.1 463 1160 463H1151C1149.9 463 1149 462.105 1149 461V457.5M1162 457.5V457C1162 455.895 1161.1 455 1160 455H1151C1149.9 455 1149 455.895 1149 457V457.5M1162 457.5H1155.5H1149"
                          stroke="black" stroke-linecap="round" stroke-linejoin="round"/>
                </g>
                <path
                        d="M1083.54 282.91C1083.54 281.855 1084.49 281 1085.66 281C1086.83 281 1087.78 281.855 1087.78 282.91C1087.78 283.405 1087.6 283.857 1087.29 284.197C1086.7 284.847 1085.8 285.502 1085.8 286.346V286.63M1085.8 286.63C1086.54 286.618 1087.27 286.831 1087.88 287.24L1095.32 292.25C1096.62 293.131 1095.93 295 1094.3 295H1077.7C1076.09 295 1075.38 293.165 1076.66 292.27L1083.75 287.279C1084.35 286.861 1085.07 286.634 1085.8 286.629L1085.8 286.63Z"
                        stroke="black" stroke-width="1.5" stroke-linecap="round"/>
                <g id="a_exit1">
                    <rect id="a_exit1" x="982.5" y="380.5" width="19" height="19" stroke="black"/>
                    <path d="M994.091 397V394.013C994.091 393.376 993.787 392.777 993.274 392.401L992.273 391.667M992.273 391.667L993.364 387.333M992.273 391.667L991.182 391M993.364 387.333L991.909 387M993.364 387.333L994.711 389.31C995.012 389.752 995.478 390.054 996.003 390.151L997 390.333M991.182 391L991.909 387M991.182 391L989.727 397M991.909 387L990.167 387.799C989.456 388.124 989 388.835 989 389.617V390.333M994.455 384.667C994.455 385.035 994.129 385.333 993.727 385.333C993.326 385.333 993 385.035 993 384.667C993 384.298 993.326 384 993.727 384C994.129 384 994.455 384.298 994.455 384.667Z"
                          stroke="black" stroke-width="2" stroke-linecap="round" stroke-linejoin="round"/>
                </g>
                <g id="a_exit2">
                    <rect id="a_exit2" x="1017.5" y="477.5" width="19" height="19" stroke="black"/>
                    <path d="M1029.09 494V491.013C1029.09 490.376 1028.79 489.777 1028.27 489.401L1027.27 488.667M1027.27 488.667L1028.36 484.333M1027.27 488.667L1026.18 488M1028.36 484.333L1026.91 484M1028.36 484.333L1029.71 486.31C1030.01 486.752 1030.48 487.054 1031 487.151L1032 487.333M1026.18 488L1026.91 484M1026.18 488L1024.73 494M1026.91 484L1025.17 484.799C1024.46 485.124 1024 485.835 1024 486.617V487.333M1029.45 481.667C1029.45 482.035 1029.13 482.333 1028.73 482.333C1028.33 482.333 1028 482.035 1028 481.667C1028 481.298 1028.33 481 1028.73 481C1029.13 481 1029.45 481.298 1029.45 481.667Z"
                          stroke="black" stroke-width="2" stroke-linecap="round" stroke-linejoin="round"/>
                </g>
                <g id="a_exit3">
                    <rect id="a_exit3" x="1056.5" y="380.5" width="19" height="19" stroke="black"/>
                    <path d="M1068.09 397V394.013C1068.09 393.376 1067.79 392.777 1067.27 392.401L1066.27 391.667M1066.27 391.667L1067.36 387.333M1066.27 391.667L1065.18 391M1067.36 387.333L1065.91 387M1067.36 387.333L1068.71 389.31C1069.01 389.752 1069.48 390.054 1070 390.151L1071 390.333M1065.18 391L1065.91 387M1065.18 391L1063.73 397M1065.91 387L1064.17 387.799C1063.46 388.124 1063 388.835 1063 389.617V390.333M1068.45 384.667C1068.45 385.035 1068.13 385.333 1067.73 385.333C1067.33 385.333 1067 385.035 1067 384.667C1067 384.298 1067.33 384 1067.73 384C1068.13 384 1068.45 384.298 1068.45 384.667Z"
                          stroke="black" stroke-width="2" stroke-linecap="round" stroke-linejoin="round"/>
                </g>
                <path d="M1125.5 516V509.5H1125C1124.72 509.5 1124.48 509.404 1124.29 509.212C1124.1 509.02 1124 508.783 1124 508.5V504C1124 503.45 1124.2 502.979 1124.59 502.588C1124.98 502.197 1125.45 502.001 1126 502H1129C1129.55 502 1130.02 502.196 1130.41 502.588C1130.81 502.98 1131 503.451 1131 504V508.5C1131 508.783 1130.9 509.021 1130.71 509.213C1130.52 509.405 1130.28 509.501 1130 509.5H1129.5V516C1129.5 516.283 1129.4 516.521 1129.21 516.713C1129.02 516.905 1128.78 517.001 1128.5 517H1126.5C1126.22 517 1125.98 516.904 1125.79 516.712C1125.6 516.52 1125.5 516.283 1125.5 516ZM1127.5 501C1126.95 501 1126.48 500.804 1126.09 500.413C1125.7 500.022 1125.5 499.551 1125.5 499C1125.5 498.449 1125.7 497.979 1126.09 497.588C1126.48 497.197 1126.95 497.001 1127.5 497C1128.05 496.999 1128.52 497.195 1128.91 497.588C1129.31 497.981 1129.5 498.452 1129.5 499C1129.5 499.548 1129.3 500.019 1128.91 500.413C1128.52 500.807 1128.05 501.003 1127.5 501Z"
                      fill="black"/>
            </g>
        </g>
        <path id="pathway_courtyard"
              d="M987.057 986V1082H1284.5V1130.62H987.057L988 1376.5H935L933.978 1138L613.5 1145.5V1103L933.978 1095.5V986"
              stroke="black"/>
        <path d="M1098.5 850.5L1284.5 885.5" stroke="black"/>
    </g>
</svg>
