<svg width="1920" height="2522" viewBox="0 0 1920 2522" fill="none" xmlns="http://www.w3.org/2000/svg">
        <g id="floor1">

            <path id="walls1"
                  d="M542.5 1562.5V1824.5H502.587H422.5V1755V1709.5V1693.5V1666.5H507.5V1542.5H401.5V1145.5H420.5V1075.5H404.5V766.5H495.5V726.5H546.5V648.5H909.5H989.5H1098.5V845.5H989.5V846.5H657L635.5 863.5L635 1075.5H613.5V1103.5V1145.5V1174.5H635.5V1366.5H904.5V1376.5H934.5H987.5H1016.5V1366.5H1247.5L1268.5 1365L1284.5 1349V1158.5V1081.5V885.5H1426.5V955.5H1516.5V1059.5H1496.5V1159.5H1519.5V1448.5H1422.5L1422.4 1483.5H1376.5V1566.5H1015.5V1548.5H905.5V1562.5H542.5Z"
                  stroke="black"/>
            <g id="theather">
                <g id="th_ladder1">
                    <path id="th_ladder1_1" d="M422.5 1666.5H382.5V1693.5H422.5V1666.5Z" stroke="black"/>
                    <path id="th_ladder1_2" d="M542.5 1824.5H502.5V1851.5H542.5V1824.5Z" stroke="black"/>
                </g>
                <path id="th_exit1" d="M433.5 1717.5H411.5V1737.5H433.5V1717.5Z" stroke="black"/>
                <g id="th_rooms">
                    <path id="canteen" d="M658.5 1666.5H542.5V1824.5H658.5V1666.5Z" stroke="black"/>
                    <path id="th_r1tex1" d="M876.5 1666.5H658.5V1824.5H876.5V1666.5Z" stroke="black"/>
                    <path id="th_t1_m" d="M542.5 1715.5H502.5V1742.5H542.5V1715.5Z" stroke="black"/>
                    <path id="th_t1_w" d="M542.5 1742.5H502.5V1769.5H542.5V1742.5Z" stroke="black"/>
                    <path id="th_checkroom" d="M594.5 1626.5H542.5V1666.5H594.5V1626.5Z" stroke="black"/>
                </g>
            </g>
            <g id="floor1">
                <path id="lift1" d="M931.5 826.5H914.5V843.5H931.5V826.5Z" stroke="black"/>
                <g id="ladder1">
                    <path id="ladder1_1" d="M989.5 846.5H937.5V886.5H989.5V846.5Z" stroke="black"/>
                    <path id="ladder1_2" d="M420.5 1104.5H368.5V1145.5H420.5V1104.5Z" stroke="black"/>
                    <path id="ladder1_3" d="M986.5 1548.5H934.5V1588.5H986.5V1548.5Z" stroke="black"/>
                    <path id="ladder1_4" d="M1422.5 1447.5H1376.5V1483.5H1422.5V1447.5Z" stroke="black"/>
                    <path id="ladder1_5" d="M1551.5 1088.5H1496.5V1130.5H1551.5V1088.5Z" stroke="black"/>
                </g>
                <g id="rooms1">
                    <path id="r132" d="M909.5 767.5H783.5V846.5H909.5V767.5Z" stroke="black"/>
                    <path id="r132a" d="M783.5 767.5H675.5V846.5H783.5V767.5Z" stroke="black"/>
                    <path id="r132b" d="M656.885 846.5H675.5V767.5H610.103V787.502L593 801.808L645 856L656.885 846.5Z"
                          stroke="black"/>
                    <path id="t1_w1" d="M592.5 802L644.5 856L635.5 863.5V875H542V818.5H574L592.5 802Z" stroke="black"/>
                    <path id="r145" d="M909.5 648.5H828.5V726.5H909.5V648.5Z" stroke="black"/>
                    <path id="r1tex1" d="M828.5 648.5H765.5V726.5H828.5V648.5Z" stroke="black"/>
                    <path id="r141" d="M765.5 648.5H630.5V726.5H765.5V648.5Z" stroke="black"/>
                    <path id="r139" d="M631.5 648.5H546.5V726.5H631.5V648.5Z" stroke="black"/>
                    <path id="r1tex2" d="M546.5 726.5H495.5V766.5H546.5V726.5Z" stroke="black"/>
                    <path id="r137" d="M495.5 766.5H404.5V855.5H495.5V766.5Z" stroke="black"/>
                    <path id="r135" d="M495.5 854.5H404.5V967.5H495.5V854.5Z" stroke="black"/>
                    <path id="r133" d="M495.5 966.5H404.5V1035.5H495.5V966.5Z" stroke="black"/>
                    <path id="r130" d="M635.5 874.5H542.5V971.5H635.5V874.5Z" stroke="black"/>
                    <path id="r1tex3" d="M495.5 1035.5H404.5V1075.5H495.5V1035.5Z" stroke="black"/>
                    <path id="t1tex9" d="M1375.5 1301.5H1284.5V1337.5H1375.5V1301.5Z" stroke="black"/>
                    <path id="r1tex4" d="M495.5 1075.5H420.5V1104.5H495.5V1075.5Z" stroke="black"/>
                    <path id="r1tex5" d="M635.5 970.5H542.5V1003.5H635.5V970.5Z" stroke="black"/>
                    <path id="r128" d="M635.5 1003.5H542.5V1075.5H635.5V1003.5Z" stroke="black"/>
                    <path id="r128a" d="M613.5 1075.65H542.5V1103.65H613.5V1075.65Z" stroke="black"/>
                    <path id="r131" d="M492.5 1175.5H401.5V1286.5H492.5V1175.5Z" stroke="black"/>
                    <path id="r129" d="M492.5 1286.5H401.5V1413.5H492.5V1286.5Z" stroke="black"/>
                    <path id="r1tex6" d="M613.5 1145.5H542.5V1174.5H613.5V1145.5Z" stroke="black"/>
                    <path id="r126" d="M635.5 1174.5H542.5V1235.5H635.5V1174.5Z" stroke="black"/>
                    <path id="r126_2" d="M635.5 1235.5H542.5V1329.5H635.5V1235.5Z" stroke="black"/>
                    <path id="r126b" d="M635.5 1329.65H542.5V1365.65H635.5V1329.65Z" stroke="black"/>
                    <path id="r127" d="M492.5 1413.5H401.5V1442.5H492.5V1413.5Z" stroke="black"/>
                    <path id="r124" d="M780.5 1366.5H664.5V1441.5H780.5V1366.5Z" stroke="black"/>
                    <path id="rtex14" d="M635 1365.5H542.5V1441.5H601.5V1415.5L586 1402.5L635 1365.5Z" stroke="black"/>
                    <path id="r124a" d="M664.5 1366.5H635.5L586 1402.5L601.5 1415.5V1441.5L664.5 1441V1366.5Z"
                          stroke="black"/>
                    <path id="r1tex7" d="M860.5 1366.5H779.5V1441.5H860.5V1366.5Z" stroke="black"/>
                    <path id="r120" d="M904.5 1366.5H859.5V1441.5H904.5V1366.5Z" stroke="black"/>
                    <path id="r125" d="M622.5 1483.5H542.5V1562.5H622.5V1483.5Z" stroke="black"/>
                    <path id="r1tex8" d="M664.5 1520.5H622.5V1562.5H664.5V1520.5Z" stroke="black"/>
                    <path id="r123" d="M757.5 1483.5H664.5V1562.5H757.5V1483.5Z" stroke="black"/>
                    <path id="r121a" d="M866.5 1483.5H757.5V1562.5H866.5V1483.5Z" stroke="black"/>
                    <path id="r121" d="M905.5 1483.5H866.5V1562.5H905.5V1483.5Z" stroke="black"/>
                    <path id="r119b" d="M934.5 1376.5H904.5V1441.5H934.5V1376.5Z" stroke="black"/>
                    <path id="r119" d="M934.5 1483.5H905.5V1548.5H934.5V1483.5Z" stroke="black"/>
                    <path id="r119" d="M1016.37 1483.93H986.746V1548.68H1016.37V1483.93Z" stroke="black"/>
                    <path id="r119a" d="M1016.5 1376.5H987.5V1441.5H1016.5V1376.5Z" stroke="black"/>
                    <path id="r118" d="M1108.5 1366.5H1016.5V1441.5H1108.5V1366.5Z" stroke="black"/>
                    <path id="r117" d="M1221.5 1483.5H1015.5V1566.5H1221.5V1483.5Z" stroke="black"/>
                    <path id="r116" d="M1194.5 1366.5H1107.5V1441.5H1194.5V1366.5Z" stroke="black"/>
                    <path id="r114" d="M1247.5 1366.5H1193.5V1441.5H1247.5V1366.5Z" stroke="black"/>
                    <path id="r115b" d="M1316.5 1483.5H1221.5V1566.5H1316.5V1483.5Z" stroke="black"/>
                    <path id="r115a" d="M1376.5 1483.5H1316.5V1566.5H1376.5V1483.5Z" stroke="black"/>
                    <path id="t1_m1"
                          d="M1268.5 1365L1247.5 1366.5V1441.5L1315.31 1440.99L1315.16 1425.65L1327.83 1411.68L1277 1357L1268.5 1365Z"
                          stroke="black"/>
                    <path id="t1_w2"
                          d="M1328 1411.5L1277 1357L1284.64 1349.14L1284.53 1338L1375.53 1337.1L1376.1 1394.33L1344.79 1394.64L1328 1411.5Z"
                          stroke="black"/>
                    <path id="r113a" d="M1519.5 1402.5H1422.5V1448.5H1519.5V1402.5Z" stroke="black"/>
                    <path id="r113" d="M1519.42 1367.9H1422.73V1403H1519.42V1367.9Z" stroke="black"/>
                    <path id="r111" d="M1519.42 1300.86H1422.73V1369.48H1519.42V1300.86Z" stroke="black"/>
                    <path id="r110" d="M1375.5 1246.5H1284.5V1301.5H1375.5V1246.5Z" stroke="black"/>
                    <path id="r109" d="M1519.42 1236.4H1422.73V1301.15H1519.42V1236.4Z" stroke="black"/>
                    <path id="r107" d="M1519.42 1215.77H1422.73V1236.69H1519.42V1215.77Z" stroke="black"/>
                    <path id="r108" d="M1375.5 1187.5H1284.5V1246.5H1375.5V1187.5Z" stroke="black"/>
                    <path id="r106" d="M1375.5 1158.5H1284.5V1187.5H1375.5V1158.5Z" stroke="black"/>
                    <path id="r106a" d="M1375.5 1130.5H1301.5V1158.5H1375.5V1130.5Z" stroke="black"/>
                    <path id="r105" d="M1519.5 1159.5H1422.5V1216.5H1519.5V1159.5Z" stroke="black"/>
                    <path id="r105a" d="M1496.5 1130.5H1422.5V1159.5H1496.5V1130.5Z" stroke="black"/>
                    <path id="r104" d="M1375.5 1047.5H1284.5V1081.5H1375.5V1047.5Z" stroke="black"/>
                    <path id="r103a" d="M1496.5 1059.5H1422.5V1088.5H1496.5V1059.5Z" stroke="black"/>
                    <path id="r103" d="M1516.5 1028.5H1422.5V1059.5H1516.5V1028.5Z" stroke="black"/>
                    <path id="r102" d="M1375.5 945.5H1284.5V1047.5H1375.5V945.5Z" stroke="black"/>
                    <path id="r101" d="M1516.51 981.125H1422.73V1029.12H1516.51V981.125Z" stroke="black"/>
                    <path id="r100" d="M1426.5 885.5H1375.5V955.5H1426.5V885.5Z" stroke="black"/>
                    <path id="coworking" d="M1098.5 729.5H989.5V845.5H1098.5V729.5Z" stroke="black"/>
                    <path id="r1tex10" d="M1098.5 691.5H1016.5V729.5H1098.5V691.5Z" stroke="black"/>
                    <path id="r1tex11" d="M1098.5 648.5H1016.5V691.5H1098.5V648.5Z" stroke="black"/>
                    <path id="r1tex12" d="M1375.5 885.5H1284.5V945.5H1375.5V885.5Z" stroke="black"/>
                    <path id="r1tex13" d="M1516.5 955.5H1422.5V981.5H1516.5V955.5Z" stroke="black"/>
                    <path id="keys" d="M1016.5 648.5H989.5V729.5H1016.5V648.5Z" stroke="black"/>
                </g>
                <g id="exit1">
                    <path id="inside_exit_1" d="M624.5 1114.5H602.5V1134.5H624.5V1114.5Z" stroke="black"/>
                    <path id="inside_exit_2" d="M971.5 1365.5H949.5V1385.5H971.5V1365.5Z" stroke="black"/>
                    <path id="inside_exit3" d="M1296.5 1106.5H1274.5V1126.5H1296.5V1106.5Z" stroke="black"/>
                    <path id="exit1_2" d="M959.5 639.5H937.5V659.5H959.5V639.5Z" stroke="black"/>
                </g>
            </g>
            <g id="auditorium1">
                <path id="walls2"
                      d="M1065.5 566.5V486.542L991.5 486.5L991.5 341.5H1065.5V315.5L1028.95 315.883L1028.5 112H1142.5V80H1338.5L1338.2 566.5H1065.5Z"
                      stroke="black"/>
                <g id="a_exit">
                    <path id="a_exit3" d="M1077.5 370.5H1055.5V390.5H1077.5V370.5Z" stroke="black"/>
                    <path id="a_exit1" d="M1003.5 370.5H981.5V390.5H1003.5V370.5Z" stroke="black"/>
                    <path id="a_exit2" d="M1038.5 476.5H1016.5V496.5H1038.5V476.5Z" stroke="black"/>
                </g>
                <path id="a_t1_m" d="M1142.5 487.5H1065.5V566.5H1142.5V487.5Z" stroke="black"/>
                <g id="a_rooms1">
                    <path id="r_a11" d="M1142.5 111.5H1028.5V266.5H1142.5V111.5Z" stroke="black"/>
                    <path id="rtex1" d="M1338.5 79.5H1142.5V122.5H1338.5V79.5Z" stroke="black"/>
                    <path id="r_a13" d="M1338.5 122.5H1229.5V232.5H1338.5V122.5Z" stroke="black"/>
                    <path id="rtex2"
                          d="M1338.5 191.608V207.666V253.5H1365.01L1388.5 235.5V208V194.227V180.5H1355.5V191.412L1338.5 191.608Z"
                          stroke="black"/>
                    <path id="r_a15" d="M1338.5 260.5H1229.5V371.5H1338.5V260.5Z" stroke="black"/>
                    <path id="rtex3" d="M1338.5 341.5V357.63V404.5H1363.77L1388.5 385.5V329.5H1355.5V341.5H1338.5Z"
                          stroke="black"/>
                    <path id="r_a17" d="M1338.5 399.5H1229.5V518.5H1338.5V399.5Z" stroke="black"/>
                    <path id="rtex4" d="M1338.5 492.5V508.69V557.5H1365L1388.5 537.5V509V480.5H1356.5V492.5H1338.5Z"
                          stroke="black"/>
                    <path id="rtex5" d="M1212.5 519.5H1142.5V566.5H1212.5V519.5Z" stroke="black"/>
                </g>
                <path id="a_checkroom" d="M1142.5 266.5H1028.5V315.5H1142.5V266.5Z" stroke="black"/>
                <g id="a_ladder1">
                    <path id="a_ladder1_1" d="M1142.5 449.5H1103.5V487.5H1142.5V449.5Z" stroke="black"/>
                    <path id="a_ladder1_2" d="M1142.5 315.5H1065.5V342L1142.5 341.5V315.5Z" stroke="black"/>
                </g>
                <g id="a_walls1">
                    <path id="a_walls1_2" d="M1142.5 342V353" stroke="black"/>
                    <path id="a_walls1_1" d="M1142.5 403V449" stroke="black"/>
                    <path id="a_walls1_3" d="M1065.5 341V487" stroke="black"/>
                </g>
                <g id="machines">
                    <path id="a_vm1_1" d="M1163.5 427.5H1146.5V444.5H1163.5V427.5Z" stroke="black"/>
                    <path id="atm" d="M1163.5 449.5H1146.5V466.5H1163.5V449.5Z" stroke="black"/>
                </g>
            </g>
            <path id="pathway_courtyard"
                  d="M652 1150H915.5V1319M1003 1319V1150H1255.5M1255.5 1084H1003V997.5M915.5 997.5V1084H652"
                  stroke="black"/>
        </g>
</svg>
